<svg xmlns="http://www.w3.org/2000/svg" viewBox="0 0 322.14 322.4"><defs><style>.cls-1{fill:#efeded;}.cls-2{fill:none;stroke:#878686;stroke-miterlimit:10;}</style></defs><g id="图层_2" data-name="图层 2"><g id="图层_1-2" data-name="图层 1"><path class="cls-1" d="M321.64,168.62v12.75c-1,3.73-1.72,7.53-3,11.16a32.58,32.58,0,0,1-4,8c-2.91,4.17-6.67,4.39-9.37.22-2.81-4.37-5.59-4-9.16-.68-10.11,9.31-14.19,21.18-14,34.63.09,5.32,1.65,6.17,6.78,5.15,3-.6,6.47-2,8.74,1s.58,6.27-1.19,8.71c-5.86,8-11.92,15.94-18.28,23.58a18.87,18.87,0,0,1-7.44,4.85c-4.67,1.87-7.88-.57-8-5.61-.2-6.86-1.94-8.28-8.48-6a68.08,68.08,0,0,0-30.51,21.52c-4.27,5.15-3.28,7.54,3.06,9.47a33.45,33.45,0,0,1,4.91,1.79c4.7,2.26,4.87,5.3.54,8.32a16.81,16.81,0,0,1-2.57,1.54c-10.13,4.57-20.32,9-31.54,10.1a30.1,30.1,0,0,1-8.53-.37c-3.49-.67-4.46-3-2.91-6.16a24.29,24.29,0,0,1,2.76-4c2.66-3.47,2.3-5.56-1.87-7.08A38.8,38.8,0,0,0,177.15,299c-7.19-.5-14.48-1-21.62-.37-4.38.39-8.57,2.92-12.84,4.5l-.58-.55c2-1.23,3.8-2.82,5.92-3.64,7.43-2.84,15.23-2.73,22.94-1.89a93.31,93.31,0,0,1,17.19,3.26c5.08,1.55,5.46,4.62,2.52,8.92-1.37,2-2,4.54-2.92,6.83,2.44.62,4.88,1.25,7.33,1.84a3.85,3.85,0,0,0,1.12,0c12.47-.81,23.68-5.61,34.66-11.09a10,10,0,0,0,1.79-1.34c2.11-1.78,1.83-3.48-.48-4.67a32.8,32.8,0,0,0-5.9-2.3c-6.91-2-8.22-5.45-3.66-11.15a70.11,70.11,0,0,1,31-22.16,14.33,14.33,0,0,1,4-.78c4.59-.31,6.37,1.4,6.44,6.05.12,7,3.14,8.7,9.17,5a18.15,18.15,0,0,0,4.72-3.66c5.84-7.28,11.71-14.56,17.09-22.18,1.44-2,1.19-5.26,1.71-7.94-2.74-.12-5.55-.67-8.21-.26-4.91.76-7.23-.53-7.45-5.59a61.2,61.2,0,0,1,.72-11.54,41.37,41.37,0,0,1,13.87-25.44c4.32-3.85,6.75-3.49,10.28.83,2.91,3.56,5.52,3.62,8-.19a36.81,36.81,0,0,0,3.68-7.73c3.35-9.44,3.11-19.17,1.49-28.85-.4-2.43-2.31-4.62-3.53-6.93-1.92,1.42-3.84,2.82-5.75,4.25a3.4,3.4,0,0,0-.45.59c-1.87,2.31-4,2.43-6.14.5a17.76,17.76,0,0,1-3-3.34,51.52,51.52,0,0,1-7.84-39.7c1.39-7.1,3.68-8,9.87-4.42a11.28,11.28,0,0,0,3.37,1.08c.47.1.95.19,1.42.3l.7.17c.5-2,1.64-4,1.39-5.83a59.49,59.49,0,0,0-8.4-24.21,80.32,80.32,0,0,0-10-12.56c-3.25-3.39-6.06-2.29-7.13,2.29-.39,1.7-.46,3.47-.82,5.18-.84,4.06-3.15,5.48-7.07,4.29a15.51,15.51,0,0,1-3.72-1.72A62.47,62.47,0,0,1,248.74,57.6,17.3,17.3,0,0,1,247.17,53c-.75-4.08.71-5.84,4.8-6.22a29.82,29.82,0,0,0,5.17-.74c2.3-.64,3.3-2.24,2.26-4.58a16.74,16.74,0,0,0-2.21-3.86c-8.29-10.14-19.31-16-31.61-19.63-1.91-.56-5.08-.49-6.11.67s-.73,4.22-.15,6.19c1.89,6.41.72,8.81-5.86,9.71-13.92,1.91-26.7-1.82-38.84-8.33a7.78,7.78,0,0,1-1.77-1.37c-3-3-3-6.19.15-9.06,1.29-1.17,2.81-2.07,4.14-3.2,3.3-2.8,3-4.73-.91-6.58a19.25,19.25,0,0,0-3.88-1.37,66.67,66.67,0,0,0-33,.48c-2.6.73-4.74,3.12-7.08,4.74,1.73,2.16,3.12,4.75,5.25,6.4,5,3.88,5.45,6.46.7,10.67a37.82,37.82,0,0,1-7.72,5.22,71.41,71.41,0,0,1-29.91,7.4c-6.06.25-8.22-2.54-7-7.65,2-8.16.23-9.93-8.06-7.73A27.45,27.45,0,0,0,79,26.63c-4.85,2.76-9.53,5.82-14.28,8.77l-.5-.51C70.83,28,79.11,24.13,88.33,22.37c6.48-1.23,8.93,1.86,7.1,8.17-1.77,6.07-.56,8,5.69,7.68,10.93-.53,21.47-2.87,31.08-8.41a32.94,32.94,0,0,0,5.13-3.73c3.54-3,4.4-6.28-.55-8.69a11.21,11.21,0,0,1-2.1-1.56c-5.12-4.24-4.21-6.69.84-10.85,10.07-8.31,57.1-4.93,41.88,9.08-.46.42-1,.72-1.51,1.1-5.64,4.22-5.72,7.79.8,10.7A106.47,106.47,0,0,0,198.62,33c5.23,1.07,10.93.48,16.33-.16,4.19-.5,4.84-2.41,3.57-6.39a23,23,0,0,1-1.24-5.05c-.29-3.57,1.19-5.14,4.74-5.17a15.3,15.3,0,0,1,4.42.59A68.11,68.11,0,0,1,252,30.47a42.16,42.16,0,0,1,7.66,8.62c3,4.59,1.26,7.9-4.16,8.74a25.22,25.22,0,0,1-2.61.16c-4.29.22-5.91,2.13-4.12,6a66.53,66.53,0,0,0,7.74,13.13c5.24,6.72,11.35,12.68,19.45,16,3.44,1.41,5.18.23,5.83-3.38a49.87,49.87,0,0,1,1.15-6.25c1.31-4.21,4.1-5.1,7.74-2.61a15.86,15.86,0,0,1,2.58,2.17,65,65,0,0,1,17.15,35.49c.44,2.73,1.27,6.52-1.91,7.67-2,.74-5.23-.56-7.47-1.76-4.54-2.42-5.89-2.12-7,3.14a50.09,50.09,0,0,0,6.61,38.44c3.93,6.28,5.14,6.37,10.14,1.08,4-4.22,7.16-3.57,8.87,2.05C320.54,162.26,321,165.47,321.64,168.62Z"/><path class="cls-1" d="M305.72,114.9c.47.1.95.19,1.42.3C306.67,115.09,306.19,115,305.72,114.9Z"/><path class="cls-1" d="M161,36.32c70.19.06,127.08,56.78,127,126.61S231.05,289.74,161.44,289.62C90.88,289.51,34.16,233,34.31,162.85,34.45,92.9,91.14,36.27,161,36.32ZM286.12,167.11A124.85,124.85,0,0,0,161.81,37.86C91.56,37.43,36.63,94.09,36,161.9,35.4,229,88.84,287.33,160.83,288.23,229.94,287.78,284,233.41,286.12,167.11Z"/><path class="cls-1" d="M206.39,119.27l5.2,2.28-19.65,17.06-.06,0a21.13,21.13,0,0,1,2.14-2.8c4.84-4.62,9.74-9.18,14.84-14l-3.55-1.34Z"/><path class="cls-1" d="M207.64,117.79l-1.25,1.48-.22-.09Z"/><path class="cls-1" d="M194.52,177.36c-4,1.85-10.07-2.56-11.42-8.21.31-.33.61-.67.91-1C187.49,171.21,191,174.26,194.52,177.36Z"/><path class="cls-1" d="M187.85,177.63c-4,1.39-8.11-2-10.12-8.07C183.44,170,184,175.4,187.85,177.63Z"/><path class="cls-1" d="M173.16,176.09h0l-.05-.07.05.05Z"/><path class="cls-1" d="M151.46,176.93c.95,3.72,4,6.74,1.51,10.65a15.65,15.65,0,0,1-2.74,3.72c-5.45,4.52-11,8.88-17.07,13.7l5.53,1.9-25,17.51,4.61,2.79-24.4,14-.67-.53,15.62-23.56c.77,1.59,1.34,2.75,2.08,4.3l9-10.05-4-1.56c3.62-3.43,7-6.63,10.38-9.85L145.14,182Z"/><path class="cls-1" d="M151.23,157.6c3.11,4,2.89,7.81.57,11.56-.37.6-1.75.58-3.51,1.1,1.36-3.35,2.34-5.76,3.33-8.18-2.85,1.82-2.58,7.08-8.09,6.16l2.52-5.18c-2.29,1.71-4.26,3.32-6.41,4.65-.38.23-1.51-.74-3-1.55l5.66-4-.78-1.06c-3.11,1.81-5.63,6-10.26,2.88l6.13-3.62c-3.84.28-7.18,3.84-12.06.62l9.1-2.79c-12.31.79-12.31.79-14.26-2.53l7.6-.51c-4-1.35-8.8.31-11.9-3.6h17.78c-2-.76-3.47-1.74-5-1.84-3.48-.23-7,.14-10.48,0s-7.13-.81-9.52-5.09c1.85,0,3.16,0,4.45,0,7,.3,14,.65,20.93.93,3.51.15,5.84,1.19,6.27,5.31.55,5.18,2.3,6.41,7.67,6.59C149.18,157.45,150.41,157.55,151.23,157.6Z"/><path class="cls-1" d="M150.08,141c2.72,2.07,4,4,2.36,7.52-1,2-.83,4.54-1.27,7.33l-36.36-33.89,4-1.49-9-9.83c-.57,1.17-1.1,2.24-2,4L92.12,90.91l.43-.57,24.69,14.12-4.52,2.85,25,17.58-5.62,1.77C138.42,131.72,144.16,136.46,150.08,141Z"/><path class="cls-1" d="M143.37,309.53c2.19,2.65,5.3,5.49,3.55,9.18-1.86,4-6.2,3.2-9.72,3a94,94,0,0,1-31.81-7.84,18,18,0,0,1-2.92-1.66c-4.54-3.11-4.46-6.32.2-9.2.21-.13.45-.22.67-.35,6.71-3.71,7.23-5.93,2-11.77-7.69-8.62-16.63-15.47-28.18-18.17a26.72,26.72,0,0,0-3.31-.6c-7-.8-7.73,0-7.13,6.88.26,3,1.46,6.62-1.75,8.66s-6.32-.19-9-1.91a66.3,66.3,0,0,1-24.74-28.43,18.48,18.48,0,0,1-1-2.82c-1.52-5.38.61-7.72,6-6.67.49.1,1,.14,1.47.26,6.21,1.49,7.23.75,7.21-5.55-.06-14.68-6.49-26.45-17-36.14-4.27-3.92-6.21-3.18-8.09,2.41,0,.12-.1.23-.14.35-1.22,3.09-1.89,7.12-5.94,7.34-3.76.21-5.29-3.42-6.74-6.27C.49,197.41-.45,183.7,1.23,169.72c.23-1.93,1.78-4.73,3.3-5.19s3.9,1.33,5.82,2.3a8.07,8.07,0,0,1,1.85,1.84c3.73,4.07,5.44,4,8.29-1,6.6-11.36,8.23-23.75,6.8-36.56-.72-6.44-3.16-7.45-9.19-4.74a22.08,22.08,0,0,1-2.07.87c-5.66,1.91-8.85-.25-8.74-6.24A49.58,49.58,0,0,1,14.05,97.5,77.42,77.42,0,0,1,24.76,82.73c4.43-4.75,7.91-3.35,9.16,3a6,6,0,0,1,.29,1.47c-.47,6,3,7.74,8.8,3.79A71,71,0,0,0,66.77,63.52c3.1-6.15,1.64-8.29-5.18-8.92A20.93,20.93,0,0,1,58.27,54c-4.33-1.12-6.06-4.08-3.64-7.82,2.66-4.12,6.33-7.58,9.55-11.33l.5.51c-2.79,3.34-5.88,6.48-8.3,10.07-2.92,4.34-1.43,7,3.75,7.61,1.61.19,3.24.3,4.83.61,3.39.65,5,2.82,4.29,6.19a17,17,0,0,1-2.33,6.25c-4.17,5.9-8.23,12-13.13,17.22A62.32,62.32,0,0,1,40.57,93.58c-3.79,2.32-6.39.63-7.25-3.71a16.53,16.53,0,0,0-.52-3c-.77-1.85-1.74-3.62-2.63-5.43-1.72.85-3.45,1.66-5.13,2.58a5.7,5.7,0,0,0-1.32,1.32A63.51,63.51,0,0,0,9.17,115a27,27,0,0,0-.66,6.68c.24,4.49,2.52,5.91,6.84,4.45,1.77-.6,3.43-1.49,5.18-2.16,2.94-1.13,5.22-.12,6.58,2.56a15.43,15.43,0,0,1,1.49,5A60.19,60.19,0,0,1,24.68,162,41,41,0,0,1,20,170.45c-2.52,3.47-4.7,3.41-7.66.34a20.73,20.73,0,0,0-3.12-3.22c-1.37-.88-3.19-2-4.55-1.67-1,.21-2.1,2.4-2.26,3.81-1.54,13.48-.78,26.71,5.33,39.13,1.32,2.68,2.57,6.85,6.11,6,2.06-.51,3.75-4.21,4.78-6.8,2.34-5.9,5.47-7.26,9.86-2.59a91,91,0,0,1,13.41,17.81A36.06,36.06,0,0,1,46,245.33c-.63,4.94-2.36,5.67-7.22,4.51-2.27-.54-4.75-.15-7.14-.18.29,2.48.56,5,.87,7.45a4,4,0,0,0,.48,1,66,66,0,0,0,21.75,25.29,28.84,28.84,0,0,0,5.53,3.09c3.54,1.43,5.35.25,5.41-3.5a46.26,46.26,0,0,0-.66-6.3c-.5-3.92.77-5.69,4.66-6.07a19.19,19.19,0,0,1,4.84.24c11.49,1.8,20.65,7.92,28.64,15.93a41.82,41.82,0,0,1,6.37,8.65c1.66,2.89.3,5.27-2.53,6.8-.87.47-1.82.82-2.69,1.3-5.14,2.77-5.47,5.77-.12,8a155.41,155.41,0,0,0,23.39,7.51c4.86,1.17,10.12,1.12,15.17.91,3.32-.14,4.16-2.33,2.57-5.3a58.67,58.67,0,0,0-3.82-5.54c-1.6-2.33-1.93-4.57.58-6.55l.58.55C141,305.48,141.65,307.45,143.37,309.53Z"/><path class="cls-1" d="M148.75,155.25c-5,1.75-7.14-.05-7-6.49Z"/><path class="cls-1" d="M145.26,181.9l-.12.12,0,0Z"/><path class="cls-1" d="M145.26,181.9l-.1.09.06-.07Z"/><path class="cls-1" d="M137.66,177.65c4-2.09,4.47-7.64,10-8.12C146.52,175.17,141.76,179.19,137.66,177.65Z"/><path class="cls-1" d="M130.61,177.29c5-2,6.54-7.66,12-8.84C141.62,174.23,135.59,178.92,130.61,177.29Z"/><path class="cls-1" d="M136.19,166.88l1.51,2.1c-4.22,6.52-9.39,9.09-12.26,6.19Z"/><path class="cls-1" d="M120.53,172.73c2.16-3.14,10.42-7,13.1-6C129.31,172.19,123.88,174.6,120.53,172.73Z"/><path class="cls-1" d="M131.51,179.19c-.1.32-.19.64-.28,1L106.58,192l5,3-28.2,11.4,3.49,3.89-26.36,7.94L60,217.4l20.22-19.18c.37,1.71.63,2.94,1,4.86l12-7.24-4.72-3.1,24.83-14.32c1.62-.93,3.19-2,4.87-2.79,2.33-1.12,4.57-1.67,6.45,1.05.52.75,1.87,1,2.88,1.34C128.9,178.47,130.21,178.81,131.51,179.19Z"/><path class="cls-1" d="M116.32,169.1c1.05-1.71,10.93-5.45,13.56-4.78-4.19,3.59-8.08,6.64-13.73,5.8A2.77,2.77,0,0,1,116.32,169.1Z"/><path class="cls-1" d="M123.65,159.85c1.66,1.63,1.59,2.9-.53,4.26-4.78,3-8.06,3.5-9.93,1Z"/><path class="cls-1" d="M109,161.53c4.57,0,7.3-4.75,12.48-2.71C116.85,163.06,112.69,164.07,109,161.53Z"/><path class="cls-1" d="M116.15,170.12v0l-.06,0Z"/><path class="cls-1" d="M116.15,170.16h0l-.06-.06Z"/><path class="cls-1" d="M114.89,152.54a21.29,21.29,0,0,0,3.44,2.71c-2.79,3.63-8.88,6-12.56,4.6l9.07-4.18-.24-.88c-6.83,2.22-13.44,6.93-20.91,2.09l16.78-3.66c-.08-.34-.15-.68-.22-1-4.87.93-9.71,2.14-14.62,2.69-4.66.52-9.78,1.72-13.78-3.58l24.8-1.21c0-.11-.05-.23-.08-.35-7.13,0-14.27.17-21.4-.07A32.24,32.24,0,0,1,75.72,148c-2.29-.81-4.75-2.32-4.38-5.83,6,.94,11.85,2,17.73,2.73a51.52,51.52,0,0,0,10.43.62C106.09,145,110.84,147.77,114.89,152.54Z"/><path class="cls-1" d="M106.39,139.08l6.58,3.4c-9,3.73-17,2.29-24.3-4l4.22-2.93-12.06-7c-.4,1.66-.69,2.83-1.14,4.67L58.51,114l.33-.55,27.35,7.73-3.41,3.94,28.3,11Z"/><path class="cls-1" d="M255.66,141.56a8,8,0,0,0-.26,1.07h0c-1.26-.42-1.62-.66-1.94-.62q-11.73,1.31-23.46,2.65v-.13c7-1.11,13.88-2.29,20.85-3.28A22.92,22.92,0,0,1,255.66,141.56Z"/><path class="cls-1" d="M185.39,96.65a9.11,9.11,0,0,1-6,13c-2.28.53-4.71.38-7.07.57-1.68.13-3.35.33-4.42.44-.11,2.51-.24,4.78-.32,7l-.63,0a15.25,15.25,0,0,0-1.31-5.41c-6.89,2.93-10.82,7.14-11.28,11.48l-.52,0a33.08,33.08,0,0,1,.85-5.27c1-3.68.43-5.43-3.43-6.24-4.38-.93-8.89-1.21-13.33-1.87-3.43-.51-6.26-2.1-7.35-5.56-1-3.18-.93-6.35,1.95-9.27.71.92,1.31,1.64,1.86,2.4,2.32,3.17,5.49,4,9.22,3.49,3.41-.5,6.82-1,10.65-1.52,3.19-5.16,5.71-11,2-17.67a3.4,3.4,0,0,1,.52-3.28c.72-.57,2.45-.46,3.43,0,5.69,2.69,7.94,7.67,8.43,13.6.2,2.34,0,4.71,0,7.41,2,0,4.2-.13,6.39,0,2.89.2,5.15-.37,6.31-3.42.29-.76,1.41-1.74,2.07-1.69S185,95.85,185.39,96.65Zm-6.3,11.8c5.46-1.25,7.58-7.55,4.16-12.2-3.41,5.11-3.41,5.11-10.37,4.8-7.67-.34-12.6,4.35-12.22,10.71,4.79-1,9.37-2,14-2.86C176.1,108.62,177.65,108.78,179.09,108.45Zm-12.2-9.3c.12-3.35.41-6.8-.21-10.05a11.68,11.68,0,0,0-8.82-9.64c-.24.58-.51.93-.49,1.25a4.78,4.78,0,0,0,.4,1.81c2.74,5.33,1.66,10.33-1,15.36s-1.61,10.33,2.61,14.81c-.43-5.12,1.53-8.83,5.95-11.28A3.29,3.29,0,0,0,166.89,99.15Zm-9.15,16.14c-.93-3.24-2.4-6.1-3.24-9.13-1.31-4.67-2.43-5.74-7.11-4.39-5.89,1.7-11.06,1.41-15-4.07-2.61,6.29.15,10.49,6.81,11.52C145.62,110.21,153,108.46,157.74,115.29Z"/><path class="cls-1" d="M206,172.7c-4.95,1.62-10-.82-13.87-6,1.06-.36,2.37-1.28,3-.94C198.64,167.81,202,170.12,206,172.7Z"/><path class="cls-1" d="M198.79,173.85a6.55,6.55,0,0,1,1.19,1.94,5.92,5.92,0,0,1-1.85,1c-2.42.27-9.6-5-9.79-7.24-.08-.92.7-1.91,1-2.61C192.68,169.34,195.78,171.54,198.79,173.85Z"/><path class="cls-1" d="M209.45,168.46c-2.62,3.15-8.47,1.23-13.11-4.06.15-.45.31-.9.46-1.34Z"/><path class="cls-1" d="M212.76,165.18c-2.19,2.22-7,1.64-10.58-1.43-.81-.69-.79-2.36-1.39-4.4Z"/><path class="cls-1" d="M231.15,90.31l.48.49-15.85,23.85-1.95-4.2c-2.16,2.55-4.21,5-6.19,7.34l-1.47,1.39.22.09-1.08,1.28,3.55,1.34c-5.1,4.79-10,9.35-14.84,14a21.13,21.13,0,0,0-2.14,2.8h0c-2.27,1.8-4.61,3.51-6.77,5.44-3.9,3.49-7.68,7.12-11.84,11-1.08-3.67-3.81-6.55-1.91-10.34a11.92,11.92,0,0,1,2.53-3.87c5.63-4.69,11.42-9.2,17.69-14.2L186,124.86l24.89-17.49-4.47-2.89Z"/><path class="cls-1" d="M268.05,110.88l.74,1.23L242.45,136c-.46-2-.75-3.3-1.17-5.16L233,135.42l4.36,3.33-7.81,4.55.36,1.22v.13c-3.18.35-6.37.72-9.55,1.09a5.5,5.5,0,0,0-2.75.89c-3.58,2.89-7,5.9-10.83,9.1,4.14,2.75,8,5.24,13,4.06l-9.11-4.15c.13-.3.27-.61.41-.91,2.24.91,4.44,2,6.75,2.69a29.5,29.5,0,0,0,7.6,1.75c2.16.09,4.35-.85,6.53-1.33-.09-.33-.18-.65-.28-1l-16.43-3.7.3-1.21a26.08,26.08,0,0,0,3.5.9c6.27.79,12.54,1.74,18.84,2.07,1.85.1,3.8-1.67,5.71-2.58-.17-.35-.34-.71-.5-1.06l-24.36-1.22c8-.35,16-.14,23.9-.46a22.05,22.05,0,0,0,8.49-2.38c1.61-.78,2.6-2.82,4.13-4.6h0c-.35,1.6-.54,3.42-1.52,4.15A108.19,108.19,0,0,1,239.26,156c-2.49,1.27-5.54,1.17-8,3.29-1.28,1.11-3.77,1.21-5.69,1.13-5.28-.24-8.9,2.28-12.11,6.12-1.61,1.93-3.79,3.38-5.64,5.13a31.74,31.74,0,0,0-2.35,2.93L237,192.71c-1.73,1.18-2.92,2-4.58,3.14l8,4.93c.47-1.72.85-3.07,1.43-5.19l25.94,24.35-.7,1.19-33.81-10.25,3.63-4-28.71-11.79,5.34-3c-7-3.37-13.67-6.68-20.45-9.75-2.42-1.1-5.21-1.39-7.65-2.45a19.59,19.59,0,0,1-5.16-3.52c-1.55-1.4-2.52-3.49-4.18-4.68s-3.63-1.41-6.08-2.29c1.15,2.47,2.16,4.6,3.15,6.74l-.05-.05.05.07a52.5,52.5,0,0,1-2.69,6.67c-1.8,3.22-.68,5.37,1.92,7.35,3.07,2.34,6.08,4.78,9.1,7.2s6.11,4.93,9.65,7.78l-5.67,1.71,25,17.6L206,227.3l24.27,13.87.53-.72c-5.08-7.62-10.16-15.24-15.48-23.24-.84,1.65-1.41,2.79-2.11,4.15L204,211.42l4.16-1.57c-.81-.9-1.34-1.56-2-2.14q-15.33-14.28-30.66-28.57a23.43,23.43,0,0,1-2.35-3h0c3.53,3,7.14,6,10.58,9.15,8.39,7.67,16.69,15.44,25,23.18.54.5,1,1.06,1.87,2L206,212.31l6.56,6.66,2.54-4.56,19.61,29.33-.93,1.06-30.52-17.58,4.71-3-25.41-17.94,5.67-1.95-17.13-13.74c-.28,4.9-.47,9.11-.79,13.31-.14,1.85,0,4-.9,5.46-1.79,3.14-.41,5.13,2,6.5a36.37,36.37,0,0,0,7.27,2.69c2.38.73,5,.94,7.23,1.88A8.11,8.11,0,0,1,188.11,234c-2.17-7.18-7-5.15-12.52-4.85-6.08.32-8.14,3.8-10.2,7.85-1,2.07-.77,4.8-1.29,7.18-.28,1.24-.69,2.78-1.58,3.43-.54.39-2.3-.44-3.22-1.12-5.18-3.77-7.37-8.69-4.76-14.84-3.32-1-6-2-8.77-2.64s-5.47-.58-6.61,3c-.27.83-1.56,1.34-2.39,2A10.28,10.28,0,0,1,135,231.3c-1.58-6.05,3.35-12.14,10.13-12.48,3.44-.17,6.9,0,10.8,0-2-4.81.86-9.17-1.83-13.89-1.95-3.42-.63-8.69-.77-13.13l-1.11-.38-16.3,13,5.83,1.87-25.44,18,4.66,3L90.42,244.84l-.93-1,19.68-29.54,2.39,4.8,6.15-7-4.07-1.62c.83-.94,1.39-1.72,2.08-2.36q13.17-12.26,26.4-24.46a15,15,0,0,1,3.1-1.74l-.06.07,0,0L126.32,200c-3.37,3.22-6.76,6.42-10.38,9.85l4,1.56-9,10.05c-.74-1.55-1.31-2.71-2.08-4.3L93.25,240.69l.67.53,24.4-14-4.61-2.79,25-17.51-5.53-1.9c6-4.82,11.62-9.18,17.07-13.7a15.65,15.65,0,0,0,2.74-3.72c2.51-3.91-.56-6.93-1.51-10.65L145.14,182l.12-.12,0,0c1.45-1.74,3-3.43,4.29-5.26a43.37,43.37,0,0,0,2.52-4.41l-1.18-1.08a19.24,19.24,0,0,0-2.81,2c-1.76,1.75-3.27,3.75-5.11,5.41-.85.77-2.66,1.67-3.27,1.28-3.17-2-5.32.32-7.72,1.45-7.32,3.44-14.6,7-22.39,10.68l5.23,3.08L86.11,206.8c1.16,1.33,2.08,2.39,3.54,4l-33.9,10.36L55,220.05l26.07-24.46,1.32,5.17,8.38-4.91L86,192.79l33.74-19.53c-1.69-1.48-2.64-2.29-3.56-3.09h0v0c5.65.84,9.54-2.21,13.73-5.8-2.63-.67-12.51,3.07-13.56,4.78a2.77,2.77,0,0,0-.17,1h-.06c-2.35-2.17-4.74-4.3-7-6.53-2.45-2.37-5.33-3-8.67-3.21-2.77-.21-5.43-1.73-8.14-2.66a19.77,19.77,0,0,0-3-1c-3.49-.61-6.91-1.14-8.61-5-.33-.74-1.86-.88-2.75-1.45a59.3,59.3,0,0,1-7.26-4.92,3.73,3.73,0,0,1-.47-3.64c.47-.74,2.38-1,3.57-.8,5.92.85,11.8,1.92,17.71,2.88a22.67,22.67,0,0,0,2.82,0l-8.35-5.09L90,135.51l-7.88-4.68c-.53,1.73-.95,3.11-1.53,5l-26-23.62.45-1.15c11.29,2.58,22.31,6.23,34.08,9.46l-3.76,4.07L114.38,136l-5,2.91c8.14,5.92,17.29,6.28,27.3,5.21l-24.3-22.65,4.62-1.91-6.36-7.19-2.48,5.13C101.45,107.33,95,97.66,88.55,88l.84-1,30.55,17.53-4.69,3,25.55,18.06-5.89,1.79,17.52,14c.4-5.45.69-10,1.09-14.52.09-1.06.17-2.13.27-3.19l.52,0a8.78,8.78,0,0,0,1.57,5.91c2.1-1.71,4.12-3.55,6.33-5.12,3.21-2.28,4.69-4.17,4.69-6.86l.63,0c-.05,1.18-.08,2.34-.09,3.49,0,.76.63,1.51.88,2.3.55,1.75,1.83,3.75,1.41,5.25-1.22,4.3,0,8,2.19,12.12l16.92-13.51-6-1.7,25.54-18-4.6-3.06,30.54-17.58.92,1-19.71,29.58c-.89-1.84-1.49-3.09-2.34-4.87l-5.54,5.21c2-2.35,4-4.79,6.19-7.34l1.95,4.2L231.63,90.8l-.48-.49-24.7,14.17,4.47,2.89L186,124.86l5.54,1.85c-6.27,5-12.06,9.51-17.69,14.2a11.92,11.92,0,0,0-2.53,3.87c-1.9,3.79.83,6.67,1.91,10.34,4.16-3.89,7.94-7.52,11.84-11,2.16-1.93,4.5-3.64,6.77-5.44q-7,6.9-13.92,13.76c-1.11,1.09-2.28,2.14-3.7,3.47,8.55.73,9.53-.5,10.15-6.66.3-2.88,2.39-4.33,5.09-4.7a21.43,21.43,0,0,1,5.6-.06c7,.92,12.78-2.32,18.89-5.48l-5.07-3,28.94-11.35-3.77-4Zm-3.36,3c-.1-.17-.21-.33-.31-.49l-27.33,7.72,3.2,4L212,136.08l4.85,3-8.56,4.22c3.05,0,5.87-.78,7.94.14,7.62,3.39,12.54-1.57,18.52-4.75l-4.43-3.19,12.16-7c.37,1.88.61,3.11.94,4.77Zm-2.23,104.3.39-.9-20.15-19c-.43,1.79-.73,3-1.16,4.77l-11.9-7.2,4.63-3.16c-9-5.18-17.61-10.15-26.25-15.09-2.65-1.52-5.34-4.3-8.06,0-.2.31-.92.28-1.4.42l-7.06,2,24.94,12-5.16,2.92,28.29,11.52c-1.4,1.54-2.34,2.59-3.52,3.88ZM217,144.66c-2,0-3.52,0-5,0-6.61.26-13.21.63-19.81.81-4.84.14-6.06,1.09-6.85,6-.69,4.25-2.41,5.77-6.74,5.95l-5.14.25c-.51,2.66-.84,5-1.41,7.29-1,4,.18,5.22,4.89,4.55l-2.66-7.37c2.45,2.34,2.73,6.64,7.89,6.37l-2.47-5.65c1.87,1.42,3.05,3.21,4.65,4.47.63.51,2.19-.14,3.33-.27a18.48,18.48,0,0,0-1.27-2.56c-.71-1-1.6-1.85-2.41-2.77,6.06,4,6.94,4.22,10.07,2.17l-5.87-3.71c4,.59,7.35,4.26,11.91.67l-8.85-2.67c11.74,1.21,12.33,1.14,14.21-2.53l-7.78-.58c10.88-2,10.88-2,12.2-4.49l-18.19.95c2.38-.81,4-1.73,5.61-1.83,3.73-.22,7.5.16,11.23-.09C211.82,149.36,215,148.51,217,144.66Zm-12.43,15.1c3.57,2,6.85,4.35,12.08,2.89C209.12,157.77,206.92,157.25,204.55,159.76Zm-2.37,4c3.59,3.07,8.39,3.65,10.58,1.43l-12-5.83C201.39,161.39,201.37,163.06,202.18,163.75Zm-5.84.65c4.64,5.29,10.49,7.21,13.11,4.06l-12.65-5.4C196.65,163.5,196.49,164,196.34,164.4Zm-4.2,2.34c3.84,5.14,8.92,7.58,13.87,6-4-2.58-7.37-4.89-10.9-6.9C194.51,165.46,193.2,166.38,192.14,166.74Zm7.84,9a6.55,6.55,0,0,0-1.19-1.94c-3-2.31-6.11-4.51-9.47-7-.28.7-1.06,1.69-1,2.61.19,2.29,7.37,7.51,9.79,7.24A5.92,5.92,0,0,0,200,175.79Zm-16.88-6.64c1.35,5.65,7.4,10.06,11.42,8.21-3.54-3.1-7-6.15-10.51-9.21C183.71,168.48,183.41,168.82,183.1,169.15Zm5.73,62.42c1.67-6.54-.39-9.72-7.19-11-5.36-1-10.82-1.67-14.66-6.56.51,2.48,1.63,4.56,2.26,6.78a77.66,77.66,0,0,1,1.41,8.13c3-.59,5.79-.94,8.47-1.76,3.75-1.13,6.58-.37,8.54,3.13A8.59,8.59,0,0,0,188.83,231.57Zm-11.1-62c2,6.11,6.09,9.46,10.12,8.07C184,175.4,183.44,170,177.73,169.56ZM157.54,208c13.23-7.36,14.05-12.82,10.68-20.93-3.93,3.47-7.76,6.5-11.17,10S153.89,204.92,157.54,208Zm-2.35-11.74c13.38-9.17,17.87-16.89,14.26-24.53-4.23,3.69-8.66,7.1-12.51,11.06C153.32,186.47,153.1,191.11,155.19,196.23Zm0-14c15.91-12.63,20.5-23,14.21-32.24-3.43,3.14-7,5.77-9.75,9.11a34.17,34.17,0,0,0-6.26,10.75A13.25,13.25,0,0,0,155.16,182.18Zm13.19-33.8c3.13-3.51,2.39-9.7-.79-12.66l-8.85,6.91c-6.3,4.92-7.72,11.67-3.83,19.16C159.57,157.17,164.23,153,168.35,148.38Zm-.7,82.1c2.28-4.82,1.16-10.45-2.8-14.62-1.26,2.06-2.47,4-3.69,6l.37-3.82a52.82,52.82,0,0,1-7.43,2c-2.56.31-5.2-.06-7.8,0a14.79,14.79,0,0,0-3.69.51c-5.18,1.43-7.6,6.59-5.17,12.34,1-4.19,3.44-5.95,7.06-5.55a31.31,31.31,0,0,1,5.34,1.6c2.88.86,5.23.6,7-2.39,1.06-1.79,2.85-3.15,4.33-4.7l.07-.07c-1.11,1.74-2.2,3.48-3.33,5.2-4.18,6.38-4.94,15.56,4.31,19.19.38-2.79.34-5.7,1.25-8.28S166.44,233.05,167.65,230.48Zm-8.75-13.16c6.4-.47,11.73-9.23,9.44-15.17l-8.22,5.66a7.5,7.5,0,0,0-3.53,7.64A3.08,3.08,0,0,0,158.9,217.32Zm7.56-83a7.35,7.35,0,0,0-.21-10.8c-8.69,4.24-15.44,12.48-11.35,20.76C158.84,141,162.92,137.92,166.46,134.34ZM151.8,169.16c2.32-3.75,2.54-7.6-.57-11.56-.82,0-2-.15-3.29-.2-5.37-.18-7.12-1.41-7.67-6.59-.43-4.12-2.76-5.16-6.27-5.31-7-.28-14-.63-20.93-.93-1.29,0-2.6,0-4.45,0,2.39,4.28,5.93,4.9,9.52,5.09s7-.19,10.48,0c1.53.1,3,1.08,5,1.84H115.84c3.1,3.91,7.86,2.25,11.9,3.6l-7.6.51c2,3.32,2,3.32,14.26,2.53L125.3,161c4.88,3.22,8.22-.34,12.06-.62L131.23,164c4.63,3.14,7.15-1.07,10.26-2.88l.78,1.06-5.66,4c1.52.81,2.65,1.78,3,1.55,2.15-1.33,4.12-2.94,6.41-4.65l-2.52,5.18c5.51.92,5.24-4.34,8.09-6.16-1,2.42-2,4.83-3.33,8.18C150.05,169.74,151.43,169.76,151.8,169.16Zm.64-20.68c1.68-3.53.36-5.45-2.36-7.52-5.92-4.5-11.66-9.24-18-14.3l5.62-1.77-25-17.58,4.52-2.85L92.55,90.34l-.43.57,15.77,23.65c.86-1.72,1.39-2.79,2-4l9,9.83-4,1.49,36.36,33.89C151.61,153,151.48,150.49,152.44,148.48Zm-10.66.28c-.17,6.44,1.93,8.24,7,6.49Zm5.92,20.77c-5.57.48-6,6-10,8.12C141.76,179.19,146.52,175.17,147.7,169.53Zm-5.07-1.08c-5.48,1.18-7,6.84-12,8.84C135.59,178.92,141.62,174.23,142.63,168.45Zm-4.93.53-1.51-2.1-10.75,8.29C128.31,178.07,133.48,175.5,137.7,169Zm-4.07-2.23c-2.68-1.05-10.94,2.84-13.1,6C123.88,174.6,129.31,172.19,133.63,166.75Zm-2.4,13.4c.09-.32.18-.64.28-1-1.3-.38-2.61-.72-3.88-1.17-1-.35-2.36-.59-2.88-1.34-1.88-2.72-4.12-2.17-6.45-1.05-1.68.82-3.25,1.86-4.87,2.79L88.6,192.74l4.72,3.1-12,7.24c-.4-1.92-.66-3.15-1-4.86L60,217.4l.54.82,26.36-7.94-3.49-3.89,28.2-11.4-5-3Zm-8.11-16c2.12-1.36,2.19-2.63.53-4.26l-10.46,5.27C115.06,167.61,118.34,167.16,123.12,164.11Zm-1.64-5.29c-5.18-2-7.91,2.7-12.48,2.71C112.69,164.07,116.85,163.06,121.48,158.82Zm-3.15-3.57a21.29,21.29,0,0,1-3.44-2.71c-4-4.77-8.8-7.59-15.39-7a51.52,51.52,0,0,1-10.43-.62c-5.88-.77-11.72-1.79-17.73-2.73-.37,3.51,2.09,5,4.38,5.83a32.24,32.24,0,0,0,9.45,1.71c7.13.24,14.27.07,21.4.07,0,.12.05.24.08.35l-24.8,1.21c4,5.3,9.12,4.1,13.78,3.58,4.91-.55,9.75-1.76,14.62-2.69.07.34.14.68.22,1l-16.78,3.66c7.47,4.84,14.08.13,20.91-2.09l.24.88-9.07,4.18C109.45,161.22,115.54,158.88,118.33,155.25ZM113,142.48l-6.58-3.4,4.69-3-28.3-11,3.41-3.94-27.35-7.73-.33.55,21.18,19.24c.45-1.84.74-3,1.14-4.67l12.06,7-4.22,2.93C96,144.77,104,146.21,113,142.48Z"/><path class="cls-1" d="M154.5,106.16c.84,3,2.31,5.89,3.24,9.13-4.73-6.83-12.12-5.08-18.54-6.07-6.66-1-9.42-5.23-6.81-11.52,3.94,5.48,9.11,5.77,15,4.07C152.07,100.42,153.19,101.49,154.5,106.16Z"/><path class="cls-1" d="M166.68,89.1c.62,3.25.33,6.7.21,10.05a3.29,3.29,0,0,1-1.54,2.26c-4.42,2.45-6.38,6.16-5.95,11.28-4.22-4.48-5.24-9.81-2.61-14.81s3.72-10,1-15.36a4.78,4.78,0,0,1-.4-1.81c0-.32.25-.67.49-1.25A11.68,11.68,0,0,1,166.68,89.1Z"/><path class="cls-1" d="M183.25,96.25c3.42,4.65,1.3,11-4.16,12.2-1.44.33-3,.17-4.45.45-4.61.88-9.19,1.87-14,2.86-.38-6.36,4.55-11.05,12.22-10.71C179.84,101.36,179.84,101.36,183.25,96.25Z"/><path class="cls-1" d="M165.59,112.18a15.25,15.25,0,0,1,1.31,5.41c0,2.69-1.48,4.58-4.69,6.86-2.21,1.57-4.23,3.41-6.33,5.12a8.78,8.78,0,0,1-1.57-5.91C154.77,119.32,158.7,115.11,165.59,112.18Z"/><path class="cls-1" d="M166.25,123.54a7.35,7.35,0,0,1,.21,10.8c-3.54,3.58-7.62,6.61-11.56,10C150.81,136,157.56,127.78,166.25,123.54Z"/><path class="cls-1" d="M167.56,135.72c3.18,3,3.92,9.15.79,12.66-4.12,4.63-8.78,8.79-13.47,13.41-3.89-7.49-2.47-14.24,3.83-19.16Z"/><path class="cls-1" d="M169.37,149.94c6.29,9.21,1.7,19.61-14.21,32.24a13.25,13.25,0,0,1-1.8-12.38,34.17,34.17,0,0,1,6.26-10.75C162.35,155.71,165.94,153.08,169.37,149.94Z"/><path class="cls-1" d="M169.45,171.7c3.61,7.64-.88,15.36-14.26,24.53-2.09-5.12-1.87-9.76,1.75-13.47C160.79,178.8,165.22,175.39,169.45,171.7Z"/><path class="cls-1" d="M168.22,187c3.37,8.11,2.55,13.57-10.68,20.93-3.65-3.05-4-7.4-.49-11S164.29,190.51,168.22,187Z"/><path class="cls-1" d="M168.34,202.15c2.29,5.94-3,14.7-9.44,15.17a3.08,3.08,0,0,1-2.31-1.87,7.5,7.5,0,0,1,3.53-7.64Z"/><path class="cls-1" d="M161.53,218.06l-.37,3.82c-1.48,1.55-3.27,2.91-4.33,4.7-1.76,3-4.11,3.25-7,2.39a31.31,31.31,0,0,0-5.34-1.6c-3.62-.4-6.09,1.36-7.06,5.55-2.43-5.75,0-10.91,5.17-12.34a14.79,14.79,0,0,1,3.69-.51c2.6,0,5.24.33,7.8,0A52.82,52.82,0,0,0,161.53,218.06Z"/><path class="cls-1" d="M181.64,220.53c6.8,1.32,8.86,4.5,7.19,11a8.59,8.59,0,0,1-1.17-1.32c-2-3.5-4.79-4.26-8.54-3.13-2.68.82-5.5,1.17-8.47,1.76a77.66,77.66,0,0,0-1.41-8.13c-.63-2.22-1.75-4.3-2.26-6.78C170.82,218.86,176.28,219.49,181.64,220.53Z"/><path class="cls-1" d="M164.85,215.86c4,4.17,5.08,9.8,2.8,14.62-1.21,2.57-3.27,4.8-4.19,7.44s-.87,5.49-1.25,8.28c-9.25-3.63-8.49-12.81-4.31-19.19,1.13-1.72,2.22-3.46,3.33-5.2l-.07.07C162.38,219.9,163.59,217.92,164.85,215.86Z"/><path class="cls-1" d="M230.81,240.45l-.53.72L206,227.3l4.42-2.89-25-17.6,5.67-1.71c-3.54-2.85-6.59-5.33-9.65-7.78s-6-4.86-9.1-7.2c-2.6-2-3.72-4.13-1.92-7.35a52.5,52.5,0,0,0,2.69-6.67,23.43,23.43,0,0,0,2.35,3q15.3,14.33,30.66,28.57c.62.58,1.15,1.24,2,2.14L204,211.42l9.26,9.94c.7-1.36,1.27-2.5,2.11-4.15C220.65,225.21,225.73,232.83,230.81,240.45Z"/><path class="cls-1" d="M262.85,217.3l-.39.9-26.41-7.86c1.18-1.29,2.12-2.34,3.52-3.88l-28.29-11.52,5.16-2.92L191.5,180l7.06-2c.48-.14,1.2-.11,1.4-.42,2.72-4.3,5.41-1.52,8.06,0,8.64,4.94,17.25,9.91,26.25,15.09l-4.63,3.16,11.9,7.2c.43-1.74.73-3,1.16-4.77Z"/><path class="cls-1" d="M212,144.67c1.47-.06,2.94,0,5,0-2,3.85-5.16,4.7-8.45,4.93-3.73.25-7.5-.13-11.23.09-1.64.1-3.23,1-5.61,1.83l18.19-.95c-1.32,2.49-1.32,2.49-12.2,4.49l7.78.58c-1.88,3.67-2.47,3.74-14.21,2.53l8.85,2.67c-4.56,3.59-7.95-.08-11.91-.67l5.87,3.71c-3.13,2-4,1.81-10.07-2.17.81.92,1.7,1.78,2.41,2.77a18.48,18.48,0,0,1,1.27,2.56c-1.14.13-2.7.78-3.33.27-1.6-1.26-2.78-3.05-4.65-4.47l2.47,5.65c-5.16.27-5.44-4-7.89-6.37l2.66,7.37c-4.71.67-5.89-.59-4.89-4.55.57-2.29.9-4.63,1.41-7.29l5.14-.25c4.33-.18,6-1.7,6.74-5.95.79-4.87,2-5.82,6.85-6C198.78,145.3,205.38,144.93,212,144.67Z"/><path class="cls-1" d="M216.63,162.65c-5.23,1.46-8.51-.9-12.08-2.89C206.92,157.25,209.12,157.77,216.63,162.65Z"/><path class="cls-1" d="M255.36,142.62c-1.53,1.78-2.52,3.82-4.13,4.6a22.05,22.05,0,0,1-8.49,2.38c-7.92.32-15.87.11-23.9.46l24.36,1.22c.16.35.33.71.5,1.06-1.91.91-3.86,2.68-5.71,2.58-6.3-.33-12.57-1.28-18.84-2.07a26.08,26.08,0,0,1-3.5-.9l-.3,1.21,16.43,3.7c.1.33.19.65.28,1-2.18.48-4.37,1.42-6.53,1.33a29.5,29.5,0,0,1-7.6-1.75c-2.31-.73-4.51-1.78-6.75-2.69-.14.3-.28.61-.41.91l9.11,4.15c-5.09,1.18-8.91-1.31-13-4.06,3.78-3.2,7.25-6.21,10.83-9.1a5.5,5.5,0,0,1,2.75-.89c3.18-.37,6.37-.74,9.55-1.09q11.73-1.36,23.46-2.65C253.74,142,254.1,142.2,255.36,142.62Z"/><path class="cls-1" d="M264.38,113.41c.1.16.21.32.31.49l-21.24,19.39c-.33-1.66-.57-2.89-.94-4.77l-12.16,7,4.43,3.19c-6,3.18-10.9,8.14-18.52,4.75-2.07-.92-4.89-.14-7.94-.14l8.56-4.22-4.85-3,28.22-10.92-3.2-4Z"/><path class="cls-1" d="M161.81,37.86A124.85,124.85,0,0,1,286.12,167.11c-2.13,66.3-56.18,120.67-125.29,121.12C88.84,287.33,35.4,229,36,161.9,36.63,94.09,91.56,37.43,161.81,37.86Zm107,74.25-.74-1.23-34,9.71,3.77,4L208.91,136l5.07,3c-6.11,3.16-11.86,6.4-18.89,5.48a21.43,21.43,0,0,0-5.6.06c-2.7.37-4.79,1.82-5.09,4.7-.62,6.16-1.6,7.39-10.15,6.66,1.42-1.33,2.59-2.38,3.7-3.47q7-6.87,13.92-13.76h0l.06,0,19.65-17.06-5.2-2.28,1.25-1.48,5.54-5.21c.85,1.78,1.45,3,2.34,4.87l19.71-29.58-.92-1-30.54,17.58,4.6,3.06-25.54,18,6,1.7-16.92,13.51c-2.19-4.15-3.41-7.82-2.19-12.12.42-1.5-.86-3.5-1.41-5.25-.25-.79-.89-1.54-.88-2.3,0-1.15,0-2.31.09-3.49.08-2.17.21-4.44.32-7,1.07-.11,2.74-.31,4.42-.44,2.36-.19,4.79,0,7.07-.57a9.11,9.11,0,0,0,6-13c-.39-.8-1.25-1.84-2-1.89s-1.78.93-2.07,1.69c-1.16,3-3.42,3.62-6.31,3.42-2.19-.16-4.4,0-6.39,0,0-2.7.16-5.07,0-7.41-.49-5.93-2.74-10.91-8.43-13.6-1-.46-2.71-.57-3.43,0a3.4,3.4,0,0,0-.52,3.28c3.69,6.72,1.17,12.51-2,17.67-3.83.55-7.24,1-10.65,1.52-3.73.55-6.9-.32-9.22-3.49-.55-.76-1.15-1.48-1.86-2.4-2.88,2.92-3,6.09-1.95,9.27,1.09,3.46,3.92,5,7.35,5.56,4.44.66,9,.94,13.33,1.87,3.86.81,4.39,2.56,3.43,6.24a33.08,33.08,0,0,0-.85,5.27c-.1,1.06-.18,2.13-.27,3.19-.4,4.53-.69,9.07-1.09,14.52l-17.52-14,5.89-1.79-25.55-18.06,4.69-3L89.39,87l-.84,1c6.45,9.67,12.9,19.34,19.64,29.46l2.48-5.13,6.36,7.19-4.62,1.91,24.3,22.65c-10,1.07-19.16.71-27.3-5.21l5-2.91L85.3,124.64l3.76-4.07c-11.77-3.23-22.79-6.88-34.08-9.46l-.45,1.15,26,23.62c.58-1.94,1-3.32,1.53-5L90,135.51l-4.07,3.24,8.35,5.09a22.67,22.67,0,0,1-2.82,0c-5.91-1-11.79-2-17.71-2.88-1.19-.17-3.1.06-3.57.8a3.73,3.73,0,0,0,.47,3.64,59.3,59.3,0,0,0,7.26,4.92c.89.57,2.42.71,2.75,1.45,1.7,3.85,5.12,4.38,8.61,5a19.77,19.77,0,0,1,3,1c2.71.93,5.37,2.45,8.14,2.66,3.34.25,6.22.84,8.67,3.21,2.29,2.23,4.68,4.36,7,6.53l.06.06c.92.8,1.87,1.61,3.56,3.09L86,192.79l4.82,3.06-8.38,4.91-1.32-5.17L55,220.05l.73,1.16,33.9-10.36c-1.46-1.66-2.38-2.72-3.54-4L114.78,195l-5.23-3.08c7.79-3.72,15.07-7.24,22.39-10.68,2.4-1.13,4.55-3.41,7.72-1.45.61.39,2.42-.51,3.27-1.28,1.84-1.66,3.35-3.66,5.11-5.41a19.24,19.24,0,0,1,2.81-2l1.18,1.08a43.37,43.37,0,0,1-2.52,4.41c-1.31,1.83-2.84,3.52-4.29,5.26a15,15,0,0,0-3.1,1.74q-13.26,12.17-26.4,24.46c-.69.64-1.25,1.42-2.08,2.36l4.07,1.62-6.15,7-2.39-4.8L89.49,243.86l.93,1L121,227.22l-4.66-3,25.44-18-5.83-1.87,16.3-13,1.11.38c.14,4.44-1.18,9.71.77,13.13,2.69,4.72-.13,9.08,1.83,13.89-3.9,0-7.36-.14-10.8,0-6.78.34-11.71,6.43-10.13,12.48a10.28,10.28,0,0,0,1.77,2.66c.83-.65,2.12-1.16,2.39-2,1.14-3.59,3.77-3.67,6.61-3s5.45,1.63,8.77,2.64c-2.61,6.15-.42,11.07,4.76,14.84.92.68,2.68,1.51,3.22,1.12.89-.65,1.3-2.19,1.58-3.43.52-2.38.24-5.11,1.29-7.18,2.06-4,4.12-7.53,10.2-7.85,5.49-.3,10.35-2.33,12.52,4.85a8.11,8.11,0,0,0-2.24-13.49c-2.28-.94-4.85-1.15-7.23-1.88a36.37,36.37,0,0,1-7.27-2.69c-2.41-1.37-3.79-3.36-2-6.5.86-1.5.76-3.61.9-5.46.32-4.2.51-8.41.79-13.31l17.13,13.74-5.67,1.95,25.41,17.94-4.71,3,30.52,17.58.93-1.06-19.61-29.33L212.52,219,206,212.31l4.67-1.89c-.87-.94-1.33-1.5-1.87-2-8.33-7.74-16.63-15.51-25-23.18-3.44-3.15-7.05-6.12-10.58-9.15h0c-1-2.14-2-4.27-3.15-6.74,2.45.88,4.55,1.19,6.08,2.29s2.63,3.28,4.18,4.68a19.59,19.59,0,0,0,5.16,3.52c2.44,1.06,5.23,1.35,7.65,2.45,6.78,3.07,13.45,6.38,20.45,9.75l-5.34,3,28.71,11.79-3.63,4,33.81,10.25.7-1.19-25.94-24.35c-.58,2.12-1,3.47-1.43,5.19l-8-4.93c1.66-1.15,2.85-2,4.58-3.14L205.5,174.64a31.74,31.74,0,0,1,2.35-2.93c1.85-1.75,4-3.2,5.64-5.13,3.21-3.84,6.83-6.36,12.11-6.12,1.92.08,4.41,0,5.69-1.13,2.43-2.12,5.48-2,8-3.29a108.19,108.19,0,0,0,14.62-9.26c1-.73,1.17-2.55,1.52-4.15a8,8,0,0,1,.26-1.07,22.92,22.92,0,0,0-4.86-.32c-7,1-13.9,2.17-20.85,3.28l-.36-1.22,7.81-4.55L233,135.42l8.24-4.56c.42,1.86.71,3.15,1.17,5.16Z"/><path class="cls-1" d="M319.15,162.87c1.62,9.68,1.86,19.41-1.49,28.85a36.81,36.81,0,0,1-3.68,7.73c-2.49,3.81-5.1,3.75-8,.19-3.53-4.32-6-4.68-10.28-.83a41.37,41.37,0,0,0-13.87,25.44,61.2,61.2,0,0,0-.72,11.54c.22,5.06,2.54,6.35,7.45,5.59,2.66-.41,5.47.14,8.21.26-.52,2.68-.27,5.91-1.71,7.94-5.38,7.62-11.25,14.9-17.09,22.18a18.15,18.15,0,0,1-4.72,3.66c-6,3.72-9.05,2-9.17-5-.07-4.65-1.85-6.36-6.44-6.05a14.33,14.33,0,0,0-4,.78,70.11,70.11,0,0,0-31,22.16c-4.56,5.7-3.25,9.11,3.66,11.15a32.8,32.8,0,0,1,5.9,2.3c2.31,1.19,2.59,2.89.48,4.67a10,10,0,0,1-1.79,1.34c-11,5.48-22.19,10.28-34.66,11.09a3.85,3.85,0,0,1-1.12,0c-2.45-.59-4.89-1.22-7.33-1.84,1-2.29,1.55-4.82,2.92-6.83,2.94-4.3,2.56-7.37-2.52-8.92A93.31,93.31,0,0,0,171,297.06c-7.71-.84-15.51-.95-22.94,1.89-2.12.82-3.95,2.41-5.92,3.64-2.51,2-2.18,4.22-.58,6.55a58.67,58.67,0,0,1,3.82,5.54c1.59,3,.75,5.16-2.57,5.3-5.05.21-10.31.26-15.17-.91a155.41,155.41,0,0,1-23.39-7.51c-5.35-2.24-5-5.24.12-8,.87-.48,1.82-.83,2.69-1.3,2.83-1.53,4.19-3.91,2.53-6.8a41.82,41.82,0,0,0-6.37-8.65c-8-8-17.15-14.13-28.64-15.93a19.19,19.19,0,0,0-4.84-.24c-3.89.38-5.16,2.15-4.66,6.07a46.26,46.26,0,0,1,.66,6.3c-.06,3.75-1.87,4.93-5.41,3.5a28.84,28.84,0,0,1-5.53-3.09A66,66,0,0,1,33,258.12a4,4,0,0,1-.48-1c-.31-2.48-.58-5-.87-7.45,2.39,0,4.87-.36,7.14.18,4.86,1.16,6.59.43,7.22-4.51a36.06,36.06,0,0,0-4.1-22.11,91,91,0,0,0-13.41-17.81c-4.39-4.67-7.52-3.31-9.86,2.59-1,2.59-2.72,6.29-4.78,6.8-3.54.89-4.79-3.28-6.11-6C1.66,196.42.9,183.19,2.44,169.71c.16-1.41,1.26-3.6,2.26-3.81,1.36-.29,3.18.79,4.55,1.67a20.73,20.73,0,0,1,3.12,3.22c3,3.07,5.14,3.13,7.66-.34A41,41,0,0,0,24.68,162a60.19,60.19,0,0,0,3.92-30.5,15.43,15.43,0,0,0-1.49-5c-1.36-2.68-3.64-3.69-6.58-2.56-1.75.67-3.41,1.56-5.18,2.16-4.32,1.46-6.6,0-6.84-4.45A27,27,0,0,1,9.17,115,63.51,63.51,0,0,1,23.72,85.39,5.7,5.7,0,0,1,25,84.07c1.68-.92,3.41-1.73,5.13-2.58.89,1.81,1.86,3.58,2.63,5.43a16.53,16.53,0,0,1,.52,3c.86,4.34,3.46,6,7.25,3.71A62.32,62.32,0,0,0,53.79,83.35c4.9-5.26,9-11.32,13.13-17.22a17,17,0,0,0,2.33-6.25c.71-3.37-.9-5.54-4.29-6.19-1.59-.31-3.22-.42-4.83-.61-5.18-.6-6.67-3.27-3.75-7.61,2.42-3.59,5.51-6.73,8.3-10.07,4.75-2.95,9.43-6,14.28-8.77a27.45,27.45,0,0,1,6.65-2.44c8.29-2.2,10.1-.43,8.06,7.73-1.27,5.11.89,7.9,7,7.65a71.41,71.41,0,0,0,29.91-7.4A37.82,37.82,0,0,0,138.25,27c4.75-4.21,4.3-6.79-.7-10.67-2.13-1.65-3.52-4.24-5.25-6.4,2.34-1.62,4.48-4,7.08-4.74a66.67,66.67,0,0,1,33-.48A19.25,19.25,0,0,1,176.23,6c4,1.85,4.21,3.78.91,6.58-1.33,1.13-2.85,2-4.14,3.2-3.16,2.87-3.19,6.09-.15,9.06a7.78,7.78,0,0,0,1.77,1.37c12.14,6.51,24.92,10.24,38.84,8.33,6.58-.9,7.75-3.3,5.86-9.71-.58-2-.92-5,.15-6.19s4.2-1.23,6.11-.67c12.3,3.63,23.32,9.49,31.61,19.63a16.74,16.74,0,0,1,2.21,3.86c1,2.34,0,3.94-2.26,4.58a29.82,29.82,0,0,1-5.17.74c-4.09.38-5.55,2.14-4.8,6.22a17.3,17.3,0,0,0,1.57,4.57,62.47,62.47,0,0,0,23.38,25.21,15.51,15.51,0,0,0,3.72,1.72c3.92,1.19,6.23-.23,7.07-4.29.36-1.71.43-3.48.82-5.18,1.07-4.58,3.88-5.68,7.13-2.29a80.32,80.32,0,0,1,10,12.56,59.49,59.49,0,0,1,8.4,24.21c.25,1.85-.89,3.88-1.39,5.83l-.7-.17c-.47-.11-.95-.2-1.42-.3a11.28,11.28,0,0,1-3.37-1.08c-6.19-3.54-8.48-2.68-9.87,4.42a51.52,51.52,0,0,0,7.84,39.7,17.76,17.76,0,0,0,3,3.34c2.16,1.93,4.27,1.81,6.14-.5a3.4,3.4,0,0,1,.45-.59c1.91-1.43,3.83-2.83,5.75-4.25C316.84,158.25,318.75,160.44,319.15,162.87Zm-31.23.06C288,93.1,231.14,36.38,161,36.32c-69.81,0-126.5,56.58-126.64,126.53C34.16,233,90.88,289.51,161.44,289.62,231.05,289.74,287.81,232.88,287.92,162.93Z"/><path class="cls-2" d="M307.14,115.2c-.47-.11-.95-.2-1.42-.3"/><path class="cls-2" d="M142.69,303.14c4.27-1.58,8.46-4.11,12.84-4.5,7.14-.65,14.43-.13,21.62.37a38.8,38.8,0,0,1,10.51,2.44c4.17,1.52,4.53,3.61,1.87,7.08a24.29,24.29,0,0,0-2.76,4c-1.55,3.17-.58,5.49,2.91,6.16a30.1,30.1,0,0,0,8.53.37c11.22-1.09,21.41-5.53,31.54-10.1a16.81,16.81,0,0,0,2.57-1.54c4.33-3,4.16-6.06-.54-8.32a33.45,33.45,0,0,0-4.91-1.79c-6.34-1.93-7.33-4.32-3.06-9.47a68.08,68.08,0,0,1,30.51-21.52c6.54-2.25,8.28-.83,8.48,6,.14,5,3.35,7.48,8,5.61a18.87,18.87,0,0,0,7.44-4.85c6.36-7.64,12.42-15.55,18.28-23.58,1.77-2.44,3.4-5.8,1.19-8.71s-5.75-1.57-8.74-1c-5.13,1-6.69.17-6.78-5.15-.23-13.45,3.85-25.32,14-34.63,3.57-3.29,6.35-3.69,9.16.68,2.7,4.17,6.46,3.95,9.37-.22a32.58,32.58,0,0,0,4-8c1.25-3.63,2-7.43,3-11.16V168.62c-.66-3.15-1.1-6.36-2-9.43-1.71-5.62-4.87-6.27-8.87-2.05-5,5.29-6.21,5.2-10.14-1.08A50.09,50.09,0,0,1,294,117.62c1.14-5.26,2.49-5.56,7-3.14,2.24,1.2,5.43,2.5,7.47,1.76,3.18-1.15,2.35-4.94,1.91-7.67a65,65,0,0,0-17.15-35.49,15.86,15.86,0,0,0-2.58-2.17c-3.64-2.49-6.43-1.6-7.74,2.61a49.87,49.87,0,0,0-1.15,6.25c-.65,3.61-2.39,4.79-5.83,3.38-8.1-3.31-14.21-9.27-19.45-16A66.53,66.53,0,0,1,248.75,54c-1.79-3.91-.17-5.82,4.12-6a25.22,25.22,0,0,0,2.61-.16c5.42-.84,7.18-4.15,4.16-8.74A42.16,42.16,0,0,0,252,30.47a68.11,68.11,0,0,0-25.54-13.66,15.3,15.3,0,0,0-4.42-.59c-3.55,0-5,1.6-4.74,5.17a23,23,0,0,0,1.24,5.05c1.27,4,.62,5.89-3.57,6.39-5.4.64-11.1,1.23-16.33.16a106.47,106.47,0,0,1-21.93-7.13c-6.52-2.91-6.44-6.48-.8-10.7.5-.38,1.05-.68,1.51-1.1C192.62.05,145.59-3.33,135.52,5c-5.05,4.16-6,6.61-.84,10.85a11.21,11.21,0,0,0,2.1,1.56c4.95,2.41,4.09,5.65.55,8.69a32.94,32.94,0,0,1-5.13,3.73c-9.61,5.54-20.15,7.88-31.08,8.41-6.25.31-7.46-1.61-5.69-7.68,1.83-6.31-.62-9.4-7.1-8.17C79.11,24.13,70.83,28,64.18,34.89"/><path class="cls-2" d="M142.11,302.59l.58.55c-1.71,2.34-1,4.31.68,6.39,2.19,2.65,5.3,5.49,3.55,9.18-1.86,4-6.2,3.2-9.72,3a94,94,0,0,1-31.81-7.84,18,18,0,0,1-2.92-1.66c-4.54-3.11-4.46-6.32.2-9.2.21-.13.45-.22.67-.35,6.71-3.71,7.23-5.93,2-11.77-7.69-8.62-16.63-15.47-28.18-18.17a26.72,26.72,0,0,0-3.31-.6c-7-.8-7.73,0-7.13,6.88.26,3,1.46,6.62-1.75,8.66s-6.32-.19-9-1.91a66.3,66.3,0,0,1-24.74-28.43,18.48,18.48,0,0,1-1-2.82c-1.52-5.38.61-7.72,6-6.67.49.1,1,.14,1.47.26,6.21,1.49,7.23.75,7.21-5.55-.06-14.68-6.49-26.45-17-36.14-4.27-3.92-6.21-3.18-8.09,2.41,0,.12-.1.23-.14.35-1.22,3.09-1.89,7.12-5.94,7.34-3.76.21-5.29-3.42-6.74-6.27C.49,197.41-.45,183.7,1.23,169.72c.23-1.93,1.78-4.73,3.3-5.19s3.9,1.33,5.82,2.3a8.07,8.07,0,0,1,1.85,1.84c3.73,4.07,5.44,4,8.29-1,6.6-11.36,8.23-23.75,6.8-36.56-.72-6.44-3.16-7.45-9.19-4.74a22.08,22.08,0,0,1-2.07.87c-5.66,1.91-8.85-.25-8.74-6.24A49.58,49.58,0,0,1,14.05,97.5,77.42,77.42,0,0,1,24.76,82.73c4.43-4.75,7.91-3.35,9.16,3a6,6,0,0,1,.29,1.47c-.47,6,3,7.74,8.8,3.79A71,71,0,0,0,66.77,63.52c3.1-6.15,1.64-8.29-5.18-8.92A20.93,20.93,0,0,1,58.27,54c-4.33-1.12-6.06-4.08-3.64-7.82,2.66-4.12,6.33-7.58,9.55-11.33l.5.51"/><path class="cls-2" d="M142.11,302.59c-2.51,2-2.18,4.22-.58,6.55a58.67,58.67,0,0,1,3.82,5.54c1.59,3,.75,5.16-2.57,5.3-5.05.21-10.31.26-15.17-.91a155.41,155.41,0,0,1-23.39-7.51c-5.35-2.24-5-5.24.12-8,.87-.48,1.82-.83,2.69-1.3,2.83-1.53,4.19-3.91,2.53-6.8a41.82,41.82,0,0,0-6.37-8.65c-8-8-17.15-14.13-28.64-15.93a19.19,19.19,0,0,0-4.84-.24c-3.89.38-5.16,2.15-4.66,6.07a46.26,46.26,0,0,1,.66,6.3c-.06,3.75-1.87,4.93-5.41,3.5a28.84,28.84,0,0,1-5.53-3.09A66,66,0,0,1,33,258.12a4,4,0,0,1-.48-1c-.31-2.48-.58-5-.87-7.45,2.39,0,4.87-.36,7.14.18,4.86,1.16,6.59.43,7.22-4.51a36.06,36.06,0,0,0-4.1-22.11,91,91,0,0,0-13.41-17.81c-4.39-4.67-7.52-3.31-9.86,2.59-1,2.59-2.72,6.29-4.78,6.8-3.54.89-4.79-3.28-6.11-6C1.66,196.42.9,183.19,2.44,169.71c.16-1.41,1.26-3.6,2.26-3.81,1.36-.29,3.18.79,4.55,1.67a20.73,20.73,0,0,1,3.12,3.22c3,3.07,5.14,3.13,7.66-.34A41,41,0,0,0,24.68,162a60.19,60.19,0,0,0,3.92-30.5,15.43,15.43,0,0,0-1.49-5c-1.36-2.68-3.64-3.69-6.58-2.56-1.75.67-3.41,1.56-5.18,2.16-4.32,1.46-6.6,0-6.84-4.45A27,27,0,0,1,9.17,115,63.51,63.51,0,0,1,23.72,85.39,5.7,5.7,0,0,1,25,84.07c1.68-.92,3.41-1.73,5.13-2.58.89,1.81,1.86,3.58,2.63,5.43a16.53,16.53,0,0,1,.52,3c.86,4.34,3.46,6,7.25,3.71A62.32,62.32,0,0,0,53.79,83.35c4.9-5.26,9-11.32,13.13-17.22a17,17,0,0,0,2.33-6.25c.71-3.37-.9-5.54-4.29-6.19-1.59-.31-3.22-.42-4.83-.61-5.18-.6-6.67-3.27-3.75-7.61,2.42-3.59,5.51-6.73,8.3-10.07,4.75-2.95,9.43-6,14.28-8.77a27.45,27.45,0,0,1,6.65-2.44c8.29-2.2,10.1-.43,8.06,7.73-1.27,5.11.89,7.9,7,7.65a71.41,71.41,0,0,0,29.91-7.4A37.82,37.82,0,0,0,138.25,27c4.75-4.21,4.3-6.79-.7-10.67-2.13-1.65-3.52-4.24-5.25-6.4,2.34-1.62,4.48-4,7.08-4.74a66.67,66.67,0,0,1,33-.48A19.25,19.25,0,0,1,176.23,6c4,1.85,4.21,3.78.91,6.58-1.33,1.13-2.85,2-4.14,3.2-3.16,2.87-3.19,6.09-.15,9.06a7.78,7.78,0,0,0,1.77,1.37c12.14,6.51,24.92,10.24,38.84,8.33,6.58-.9,7.75-3.3,5.86-9.71-.58-2-.92-5,.15-6.19s4.2-1.23,6.11-.67c12.3,3.63,23.32,9.49,31.61,19.63a16.74,16.74,0,0,1,2.21,3.86c1,2.34,0,3.94-2.26,4.58a29.82,29.82,0,0,1-5.17.74c-4.09.38-5.55,2.14-4.8,6.22a17.3,17.3,0,0,0,1.57,4.57,62.47,62.47,0,0,0,23.38,25.21,15.51,15.51,0,0,0,3.72,1.72c3.92,1.19,6.23-.23,7.07-4.29.36-1.71.43-3.48.82-5.18,1.07-4.58,3.88-5.68,7.13-2.29a80.32,80.32,0,0,1,10,12.56,59.49,59.49,0,0,1,8.4,24.21c.25,1.85-.89,3.88-1.39,5.83l-.7-.17c-.47-.11-.95-.2-1.42-.3a11.28,11.28,0,0,1-3.37-1.08c-6.19-3.54-8.48-2.68-9.87,4.42a51.52,51.52,0,0,0,7.84,39.7,17.76,17.76,0,0,0,3,3.34c2.16,1.93,4.27,1.81,6.14-.5a3.4,3.4,0,0,1,.45-.59c1.91-1.43,3.83-2.83,5.75-4.25,1.22,2.31,3.13,4.5,3.53,6.93,1.62,9.68,1.86,19.41-1.49,28.85a36.81,36.81,0,0,1-3.68,7.73c-2.49,3.81-5.1,3.75-8,.19-3.53-4.32-6-4.68-10.28-.83a41.37,41.37,0,0,0-13.87,25.44,61.2,61.2,0,0,0-.72,11.54c.22,5.06,2.54,6.35,7.45,5.59,2.66-.41,5.47.14,8.21.26-.52,2.68-.27,5.91-1.71,7.94-5.38,7.62-11.25,14.9-17.09,22.18a18.15,18.15,0,0,1-4.72,3.66c-6,3.72-9.05,2-9.17-5-.07-4.65-1.85-6.36-6.44-6.05a14.33,14.33,0,0,0-4,.78,70.11,70.11,0,0,0-31,22.16c-4.56,5.7-3.25,9.11,3.66,11.15a32.8,32.8,0,0,1,5.9,2.3c2.31,1.19,2.59,2.89.48,4.67a10,10,0,0,1-1.79,1.34c-11,5.48-22.19,10.28-34.66,11.09a3.85,3.85,0,0,1-1.12,0c-2.45-.59-4.89-1.22-7.33-1.84,1-2.29,1.55-4.82,2.92-6.83,2.94-4.3,2.56-7.37-2.52-8.92A93.31,93.31,0,0,0,171,297.06c-7.71-.84-15.51-.95-22.94,1.89C145.91,299.77,144.08,301.36,142.11,302.59Z"/><path class="cls-2" d="M161,36.32c70.19.06,127.08,56.78,127,126.61S231.05,289.74,161.44,289.62C90.88,289.51,34.16,233,34.31,162.85,34.45,92.9,91.14,36.27,161,36.32Z"/><path class="cls-2" d="M160.83,288.23C88.84,287.33,35.4,229,36,161.9c.62-67.81,55.55-124.47,125.8-124A124.85,124.85,0,0,1,286.12,167.11C284,233.41,229.94,287.78,160.83,288.23Z"/><path class="cls-2" d="M116.15,170.16l-.06,0"/><path class="cls-2" d="M145.16,182l.06-.07c1.45-1.74,3-3.43,4.29-5.26a43.37,43.37,0,0,0,2.52-4.41l-1.18-1.08a19.24,19.24,0,0,0-2.81,2c-1.76,1.75-3.27,3.75-5.11,5.41-.85.77-2.66,1.67-3.27,1.28-3.17-2-5.32.32-7.72,1.45-7.32,3.44-14.6,7-22.39,10.68l5.23,3.08L86.11,206.8c1.16,1.33,2.08,2.39,3.54,4l-33.9,10.36L55,220.05l26.07-24.46,1.32,5.17,8.38-4.91L86,192.79l33.74-19.53c-1.69-1.48-2.64-2.29-3.56-3.09"/><path class="cls-2" d="M173.16,176.09c3.53,3,7.14,6,10.58,9.15,8.39,7.67,16.69,15.44,25,23.18.54.5,1,1.06,1.87,2L206,212.31l6.56,6.66,2.54-4.56,19.61,29.33-.93,1.06-30.52-17.58,4.71-3-25.41-17.94,5.67-1.95-17.13-13.74c-.28,4.9-.47,9.11-.79,13.31-.14,1.85,0,4-.9,5.46-1.79,3.14-.41,5.13,2,6.5a36.37,36.37,0,0,0,7.27,2.69c2.38.73,5,.94,7.23,1.88A8.11,8.11,0,0,1,188.11,234c-2.17-7.18-7-5.15-12.52-4.85-6.08.32-8.14,3.8-10.2,7.85-1,2.07-.77,4.8-1.29,7.18-.28,1.24-.69,2.78-1.58,3.43-.54.39-2.3-.44-3.22-1.12-5.18-3.77-7.37-8.69-4.76-14.84-3.32-1-6-2-8.77-2.64s-5.47-.58-6.61,3c-.27.83-1.56,1.34-2.39,2A10.28,10.28,0,0,1,135,231.3c-1.58-6.05,3.35-12.14,10.13-12.48,3.44-.17,6.9,0,10.8,0-2-4.81.86-9.17-1.83-13.89-1.95-3.42-.63-8.69-.77-13.13l-1.11-.38-16.3,13,5.83,1.87-25.44,18,4.66,3L90.42,244.84l-.93-1,19.68-29.54,2.39,4.8,6.15-7-4.07-1.62c.83-.94,1.39-1.72,2.08-2.36q13.17-12.26,26.4-24.46a15,15,0,0,1,3.1-1.74l0,0"/><path class="cls-2" d="M191.87,138.67q-7,6.9-13.92,13.76c-1.11,1.09-2.28,2.14-3.7,3.47,8.55.73,9.53-.5,10.15-6.66.3-2.88,2.39-4.33,5.09-4.7a21.43,21.43,0,0,1,5.6-.06c7,.92,12.78-2.32,18.89-5.48l-5.07-3,28.94-11.35-3.77-4,34-9.71.74,1.23L242.45,136c-.46-2-.75-3.3-1.17-5.16L233,135.42l4.36,3.33-7.81,4.55.36,1.22c7-1.11,13.88-2.29,20.85-3.28a22.92,22.92,0,0,1,4.86.32,8,8,0,0,0-.26,1.07c-.35,1.6-.54,3.42-1.52,4.15A108.19,108.19,0,0,1,239.26,156c-2.49,1.27-5.54,1.17-8,3.29-1.28,1.11-3.77,1.21-5.69,1.13-5.28-.24-8.9,2.28-12.11,6.12-1.61,1.93-3.79,3.38-5.64,5.13a31.74,31.74,0,0,0-2.35,2.93L237,192.71c-1.73,1.18-2.92,2-4.58,3.14l8,4.93c.47-1.72.85-3.07,1.43-5.19l25.94,24.35-.7,1.19-33.81-10.25,3.63-4-28.71-11.79,5.34-3c-7-3.37-13.67-6.68-20.45-9.75-2.42-1.1-5.21-1.39-7.65-2.45a19.59,19.59,0,0,1-5.16-3.52c-1.55-1.4-2.52-3.49-4.18-4.68s-3.63-1.41-6.08-2.29c1.15,2.47,2.16,4.6,3.15,6.74"/><path class="cls-2" d="M116.09,170.11c-2.35-2.17-4.74-4.3-7-6.53-2.45-2.37-5.33-3-8.67-3.21-2.77-.21-5.43-1.73-8.14-2.66a19.77,19.77,0,0,0-3-1c-3.49-.61-6.91-1.14-8.61-5-.33-.74-1.86-.88-2.75-1.45a59.3,59.3,0,0,1-7.26-4.92,3.73,3.73,0,0,1-.47-3.64c.47-.74,2.38-1,3.57-.8,5.92.85,11.8,1.92,17.71,2.88a22.67,22.67,0,0,0,2.82,0l-8.35-5.09L90,135.51l-7.88-4.68c-.53,1.73-.95,3.11-1.53,5l-26-23.62.45-1.15c11.29,2.58,22.31,6.23,34.08,9.46l-3.76,4.07L114.38,136l-5,2.91c8.14,5.92,17.29,6.28,27.3,5.21l-24.3-22.65,4.62-1.91-6.36-7.19-2.48,5.13C101.45,107.33,95,97.66,88.55,88l.84-1,30.55,17.53-4.69,3,25.55,18.06-5.89,1.79,17.52,14c.4-5.45.69-10,1.09-14.52.09-1.06.17-2.13.27-3.19a33.08,33.08,0,0,1,.85-5.27c1-3.68.43-5.43-3.43-6.24-4.38-.93-8.89-1.21-13.33-1.87-3.43-.51-6.26-2.1-7.35-5.56-1-3.18-.93-6.35,1.95-9.27.71.92,1.31,1.64,1.86,2.4,2.32,3.17,5.49,4,9.22,3.49,3.41-.5,6.82-1,10.65-1.52,3.19-5.16,5.71-11,2-17.67a3.4,3.4,0,0,1,.52-3.28c.72-.57,2.45-.46,3.43,0,5.69,2.69,7.94,7.67,8.43,13.6.2,2.34,0,4.71,0,7.41,2,0,4.2-.13,6.39,0,2.89.2,5.15-.37,6.31-3.42.29-.76,1.41-1.74,2.07-1.69s1.58,1.09,2,1.89a9.11,9.11,0,0,1-6,13c-2.28.53-4.71.38-7.07.57-1.68.13-3.35.33-4.42.44-.11,2.51-.24,4.78-.32,7-.05,1.18-.08,2.34-.09,3.49,0,.76.63,1.51.88,2.3.55,1.75,1.83,3.75,1.41,5.25-1.22,4.3,0,8,2.19,12.12l16.92-13.51-6-1.7,25.54-18-4.6-3.06,30.54-17.58.92,1-19.71,29.58c-.89-1.84-1.49-3.09-2.34-4.87l-5.54,5.21-1.47,1.39.22.09"/><path class="cls-2" d="M145.14,182l0,0,.1-.09-.12.12"/><path class="cls-2" d="M145.14,182l6.32-5.09c.95,3.72,4,6.74,1.51,10.65a15.65,15.65,0,0,1-2.74,3.72c-5.45,4.52-11,8.88-17.07,13.7l5.53,1.9-25,17.51,4.61,2.79-24.4,14-.67-.53,15.62-23.56c.77,1.59,1.34,2.75,2.08,4.3l9-10.05-4-1.56c3.62-3.43,7-6.63,10.38-9.85Z"/><path class="cls-2" d="M114.81,121.92l4-1.49-9-9.83c-.57,1.17-1.1,2.24-2,4L92.12,90.91l.43-.57,24.69,14.12-4.52,2.85,25,17.58-5.62,1.77c6.34,5.06,12.08,9.8,18,14.3,2.72,2.07,4,4,2.36,7.52-1,2-.83,4.54-1.27,7.33Z"/><path class="cls-2" d="M173.15,176.1h0l-.05-.05.05.07"/><path class="cls-2" d="M173.15,176.1a23.43,23.43,0,0,0,2.35,3q15.3,14.33,30.66,28.57c.62.58,1.15,1.24,2,2.14L204,211.42l9.26,9.94c.7-1.36,1.27-2.5,2.11-4.15,5.32,8,10.4,15.62,15.48,23.24l-.53.72L206,227.3l4.42-2.89-25-17.6,5.67-1.71c-3.54-2.85-6.59-5.33-9.65-7.78s-6-4.86-9.1-7.2c-2.6-2-3.72-4.13-1.92-7.35A52.5,52.5,0,0,0,173.15,176.1Z"/><path class="cls-2" d="M191.87,138.67c-2.27,1.8-4.61,3.51-6.77,5.44-3.9,3.49-7.68,7.12-11.84,11-1.08-3.67-3.81-6.55-1.91-10.34a11.92,11.92,0,0,1,2.53-3.87c5.63-4.69,11.42-9.2,17.69-14.2L186,124.86l24.89-17.49-4.47-2.89,24.7-14.17.48.49-15.85,23.85-1.95-4.2c-2.16,2.55-4.21,5-6.19,7.34l-1.25,1.48-1.08,1.28,3.55,1.34c-5.1,4.79-10,9.35-14.84,14a21.13,21.13,0,0,0-2.14,2.8"/><line class="cls-2" x1="191.87" y1="138.67" x2="191.88" y2="138.66"/><path class="cls-2" d="M191.88,138.66l.06,0,19.65-17.06-5.2-2.28"/><path class="cls-2" d="M131.23,180.15,106.58,192l5,3-28.2,11.4,3.49,3.89-26.36,7.94L60,217.4l20.22-19.18c.37,1.71.63,2.94,1,4.86l12-7.24-4.72-3.1,24.83-14.32c1.62-.93,3.19-2,4.87-2.79,2.33-1.12,4.57-1.67,6.45,1.05.52.75,1.87,1,2.88,1.34,1.27.45,2.58.79,3.88,1.17C131.41,179.51,131.32,179.83,131.23,180.15Z"/><path class="cls-2" d="M211.28,194.94l5.16-2.92L191.5,180l7.06-2c.48-.14,1.2-.11,1.4-.42,2.72-4.3,5.41-1.52,8.06,0,8.64,4.94,17.25,9.91,26.25,15.09l-4.63,3.16,11.9,7.2c.43-1.74.73-3,1.16-4.77l20.15,19-.39.9-26.41-7.86c1.18-1.29,2.12-2.34,3.52-3.88Z"/><path class="cls-2" d="M205.46,155.63c-1.88,3.67-2.47,3.74-14.21,2.53l8.85,2.67c-4.56,3.59-7.95-.08-11.91-.67l5.87,3.71c-3.13,2-4,1.81-10.07-2.17.81.92,1.7,1.78,2.41,2.77a18.48,18.48,0,0,1,1.27,2.56c-1.14.13-2.7.78-3.33.27-1.6-1.26-2.78-3.05-4.65-4.47l2.47,5.65c-5.16.27-5.44-4-7.89-6.37l2.66,7.37c-4.71.67-5.89-.59-4.89-4.55.57-2.29.9-4.63,1.41-7.29l5.14-.25c4.33-.18,6-1.7,6.74-5.95.79-4.87,2-5.82,6.85-6,6.6-.18,13.2-.55,19.81-.81,1.47-.06,2.94,0,5,0-2,3.85-5.16,4.7-8.45,4.93-3.73.25-7.5-.13-11.23.09-1.64.1-3.23,1-5.61,1.83l18.19-.95c-1.32,2.49-1.32,2.49-12.2,4.49Z"/><path class="cls-2" d="M108.62,144.57c1.85,0,3.16,0,4.45,0,7,.3,14,.65,20.93.93,3.51.15,5.84,1.19,6.27,5.31.55,5.18,2.3,6.41,7.67,6.59,1.24,0,2.47.15,3.29.2,3.11,4,2.89,7.81.57,11.56-.37.6-1.75.58-3.51,1.1,1.36-3.35,2.34-5.76,3.33-8.18-2.85,1.82-2.58,7.08-8.09,6.16l2.52-5.18c-2.29,1.71-4.26,3.32-6.41,4.65-.38.23-1.51-.74-3-1.55l5.66-4-.78-1.06c-3.11,1.81-5.63,6-10.26,2.88l6.13-3.62c-3.84.28-7.18,3.84-12.06.62l9.1-2.79c-12.31.79-12.31.79-14.26-2.53l7.6-.51c-4-1.35-8.8.31-11.9-3.6h17.78c-2-.76-3.47-1.74-5-1.84-3.48-.23-7,.14-10.48,0S111,148.85,108.62,144.57Z"/><path class="cls-2" d="M113,142.48c-9,3.73-17,2.29-24.3-4l4.22-2.93-12.06-7c-.4,1.66-.69,2.83-1.14,4.67L58.51,114l.33-.55,27.35,7.73-3.41,3.94,28.3,11-4.69,3Z"/><path class="cls-2" d="M237.05,121.13l27.33-7.72c.1.16.21.32.31.49l-21.24,19.39c-.33-1.66-.57-2.89-.94-4.77l-12.16,7,4.43,3.19c-6,3.18-10.9,8.14-18.52,4.75-2.07-.92-4.89-.14-7.94-.14l8.56-4.22-4.85-3,28.22-10.92Z"/><path class="cls-2" d="M255.36,142.62c-1.53,1.78-2.52,3.82-4.13,4.6a22.05,22.05,0,0,1-8.49,2.38c-7.92.32-15.87.11-23.9.46l24.36,1.22c.16.35.33.71.5,1.06-1.91.91-3.86,2.68-5.71,2.58-6.3-.33-12.57-1.28-18.84-2.07a26.08,26.08,0,0,1-3.5-.9l-.3,1.21,16.43,3.7c.1.33.19.65.28,1-2.18.48-4.37,1.42-6.53,1.33a29.5,29.5,0,0,1-7.6-1.75c-2.31-.73-4.51-1.78-6.75-2.69-.14.3-.28.61-.41.91l9.11,4.15c-5.09,1.18-8.91-1.31-13-4.06,3.78-3.2,7.25-6.21,10.83-9.1a5.5,5.5,0,0,1,2.75-.89c3.18-.37,6.37-.74,9.55-1.09q11.73-1.36,23.46-2.65C253.74,142,254.1,142.2,255.36,142.62Z"/><path class="cls-2" d="M118.33,155.25c-2.79,3.63-8.88,6-12.56,4.6l9.07-4.18-.24-.88c-6.83,2.22-13.44,6.93-20.91,2.09l16.78-3.66c-.08-.34-.15-.68-.22-1-4.87.93-9.71,2.14-14.62,2.69-4.66.52-9.78,1.72-13.78-3.58l24.8-1.21c0-.11-.05-.23-.08-.35-7.13,0-14.27.17-21.4-.07A32.24,32.24,0,0,1,75.72,148c-2.29-.81-4.75-2.32-4.38-5.83,6,.94,11.85,2,17.73,2.73a51.52,51.52,0,0,0,10.43.62c6.59-.54,11.34,2.28,15.39,7A21.29,21.29,0,0,0,118.33,155.25Z"/><path class="cls-2" d="M169.37,149.94c6.29,9.21,1.7,19.61-14.21,32.24a13.25,13.25,0,0,1-1.8-12.38,34.17,34.17,0,0,1,6.26-10.75C162.35,155.71,165.94,153.08,169.37,149.94Z"/><path class="cls-2" d="M154.88,161.79c-3.89-7.49-2.47-14.24,3.83-19.16l8.85-6.91c3.18,3,3.92,9.15.79,12.66C164.23,153,159.57,157.17,154.88,161.79Z"/><path class="cls-2" d="M157.86,79.46a11.68,11.68,0,0,1,8.82,9.64c.62,3.25.33,6.7.21,10.05a3.29,3.29,0,0,1-1.54,2.26c-4.42,2.45-6.38,6.16-5.95,11.28-4.22-4.48-5.24-9.81-2.61-14.81s3.72-10,1-15.36a4.78,4.78,0,0,1-.4-1.81C157.35,80.39,157.62,80,157.86,79.46Z"/><path class="cls-2" d="M155.19,196.23c-2.09-5.12-1.87-9.76,1.75-13.47,3.85-4,8.28-7.37,12.51-11.06C173.06,179.34,168.57,187.06,155.19,196.23Z"/><path class="cls-2" d="M132.39,97.7c3.94,5.48,9.11,5.77,15,4.07,4.68-1.35,5.8-.28,7.11,4.39.84,3,2.31,5.89,3.24,9.13-4.73-6.83-12.12-5.08-18.54-6.07C132.54,108.19,129.78,104,132.39,97.7Z"/><path class="cls-2" d="M160.66,111.76c-.38-6.36,4.55-11.05,12.22-10.71,7,.31,7,.31,10.37-4.8,3.42,4.65,1.3,11-4.16,12.2-1.44.33-3,.17-4.45.45C170,109.78,165.45,110.77,160.66,111.76Z"/><path class="cls-2" d="M161.16,221.88c-1.48,1.55-3.27,2.91-4.33,4.7-1.76,3-4.11,3.25-7,2.39a31.31,31.31,0,0,0-5.34-1.6c-3.62-.4-6.09,1.36-7.06,5.55-2.43-5.75,0-10.91,5.17-12.34a14.79,14.79,0,0,1,3.69-.51c2.6,0,5.24.33,7.8,0a52.82,52.82,0,0,0,7.43-2Z"/><path class="cls-2" d="M161.16,221.88l.07-.07c-1.11,1.74-2.2,3.48-3.33,5.2-4.18,6.38-4.94,15.56,4.31,19.19.38-2.79.34-5.7,1.25-8.28s3-4.87,4.19-7.44c2.28-4.82,1.16-10.45-2.8-14.62C163.59,217.92,162.38,219.9,161.16,221.88Z"/><path class="cls-2" d="M168.22,187c3.37,8.11,2.55,13.57-10.68,20.93-3.65-3.05-4-7.4-.49-11S164.29,190.51,168.22,187Z"/><path class="cls-2" d="M154.9,144.3c-4.09-8.28,2.66-16.52,11.35-20.76a7.35,7.35,0,0,1,.21,10.8C162.92,137.92,158.84,141,154.9,144.3Z"/><path class="cls-2" d="M170.65,228.88a77.66,77.66,0,0,0-1.41-8.13c-.63-2.22-1.75-4.3-2.26-6.78,3.84,4.89,9.3,5.52,14.66,6.56,6.8,1.32,8.86,4.5,7.19,11a8.59,8.59,0,0,1-1.17-1.32c-2-3.5-4.79-4.26-8.54-3.13C176.44,227.94,173.62,228.29,170.65,228.88Z"/><path class="cls-2" d="M154.31,123.66c.46-4.34,4.39-8.55,11.28-11.48a15.25,15.25,0,0,1,1.31,5.41c0,2.69-1.48,4.58-4.69,6.86-2.21,1.57-4.23,3.41-6.33,5.12A8.78,8.78,0,0,1,154.31,123.66Z"/><path class="cls-2" d="M168.34,202.15c2.29,5.94-3,14.7-9.44,15.17a3.08,3.08,0,0,1-2.31-1.87,7.5,7.5,0,0,1,3.53-7.64Z"/><path class="cls-2" d="M136.19,166.88l1.51,2.1c-4.22,6.52-9.39,9.09-12.26,6.19Z"/><path class="cls-2" d="M189.32,166.89c3.36,2.45,6.46,4.65,9.47,7a6.55,6.55,0,0,1,1.19,1.94,5.92,5.92,0,0,1-1.85,1c-2.42.27-9.6-5-9.79-7.24C188.26,168.58,189,167.59,189.32,166.89Z"/><path class="cls-2" d="M133.63,166.75c-4.32,5.44-9.75,7.85-13.1,6C122.69,169.59,131,165.7,133.63,166.75Z"/><path class="cls-2" d="M206,172.7c-4.95,1.62-10-.82-13.87-6,1.06-.36,2.37-1.28,3-.94C198.64,167.81,202,170.12,206,172.7Z"/><path class="cls-2" d="M184,168.15c3.48,3.06,7,6.11,10.51,9.21-4,1.85-10.07-2.56-11.42-8.21C183.41,168.82,183.71,168.48,184,168.15Z"/><path class="cls-2" d="M123.65,159.85c1.66,1.63,1.59,2.9-.53,4.26-4.78,3-8.06,3.5-9.93,1Z"/><path class="cls-2" d="M212.76,165.18c-2.19,2.22-7,1.64-10.58-1.43-.81-.69-.79-2.36-1.39-4.4Z"/><path class="cls-2" d="M116.15,170.12h-.06l.06.06h0v0"/><path class="cls-2" d="M116.15,170.12a2.77,2.77,0,0,1,.17-1c1.05-1.71,10.93-5.45,13.56-4.78C125.69,167.91,121.8,171,116.15,170.12Z"/><path class="cls-2" d="M196.8,163.06l12.65,5.4c-2.62,3.15-8.47,1.23-13.11-4.06C196.49,164,196.65,163.5,196.8,163.06Z"/><path class="cls-2" d="M130.61,177.29c5-2,6.54-7.66,12-8.84C141.62,174.23,135.59,178.92,130.61,177.29Z"/><path class="cls-2" d="M147.7,169.53c-1.18,5.64-5.94,9.66-10,8.12C141.67,175.56,142.13,170,147.7,169.53Z"/><path class="cls-2" d="M177.73,169.56c5.71.46,6.31,5.84,10.12,8.07C183.82,179,179.74,175.67,177.73,169.56Z"/><path class="cls-2" d="M109,161.53c4.57,0,7.3-4.75,12.48-2.71C116.85,163.06,112.69,164.07,109,161.53Z"/><path class="cls-2" d="M216.63,162.65c-5.23,1.46-8.51-.9-12.08-2.89C206.92,157.25,209.12,157.77,216.63,162.65Z"/><path class="cls-2" d="M141.78,148.76l7,6.49C143.71,157,141.61,155.2,141.78,148.76Z"/></g></g></svg>