<svg xmlns="http://www.w3.org/2000/svg" viewBox="0 0 321.14 321.4"><defs><style>.cls-1{fill:#fff;}</style></defs><g id="图层_2" data-name="图层 2"><g id="图层_1-2" data-name="图层 1"><path d="M319.1,158.69c-1.71-5.62-4.87-6.27-8.87-2-5,5.28-6.21,5.19-10.13-1.09a50.09,50.09,0,0,1-6.62-38.44c1.14-5.26,2.49-5.56,7-3.14,2.24,1.2,5.43,2.5,7.47,1.76,3.18-1.15,2.35-4.94,1.91-7.67a65,65,0,0,0-17.15-35.49,15.32,15.32,0,0,0-2.58-2.16c-3.64-2.49-6.43-1.61-7.74,2.61a49.39,49.39,0,0,0-1.15,6.24c-.65,3.61-2.39,4.79-5.83,3.38-8.1-3.31-14.21-9.27-19.45-16a66.53,66.53,0,0,1-7.74-13.13c-1.79-3.91-.17-5.82,4.12-6,.87-.05,1.75,0,2.61-.15,5.42-.85,7.18-4.16,4.16-8.75A42.16,42.16,0,0,0,251.48,30a68.11,68.11,0,0,0-25.54-13.66,15.3,15.3,0,0,0-4.42-.59c-3.55,0-5,1.6-4.73,5.17A22.64,22.64,0,0,0,218,26c1.27,4,.62,5.88-3.57,6.38-5.4.64-11.1,1.23-16.33.16a105.87,105.87,0,0,1-21.93-7.13c-6.51-2.91-6.44-6.48-.8-10.7a14.94,14.94,0,0,0,1.51-1.1C192.12-.45,145.09-3.83,135,4.48c-5.05,4.17-6,6.61-.84,10.85a11.21,11.21,0,0,0,2.1,1.56c4.95,2.41,4.09,5.65.56,8.7a34.13,34.13,0,0,1-5.14,3.72c-9.6,5.54-20.15,7.88-31.08,8.42-6.24.3-7.46-1.62-5.69-7.69,1.83-6.31-.62-9.4-7.1-8.16-9.21,1.75-17.5,5.64-24.15,12.51l.5.51c4.75-2.94,9.43-6,14.28-8.77a27.6,27.6,0,0,1,6.65-2.44c8.29-2.2,10.1-.43,8.06,7.73-1.27,5.11.89,7.9,7,7.65A71.26,71.26,0,0,0,130,31.67a37.42,37.42,0,0,0,7.72-5.22c4.75-4.2,4.3-6.79-.7-10.67-2.13-1.64-3.52-4.24-5.25-6.4,2.34-1.62,4.48-4,7.08-4.73a66.56,66.56,0,0,1,33-.49,19.25,19.25,0,0,1,3.88,1.37c4,1.85,4.21,3.78.91,6.58-1.33,1.13-2.85,2-4.14,3.2-3.16,2.87-3.19,6.09-.15,9.07a8,8,0,0,0,1.77,1.36C186.26,32.25,199,36,213,34.07c6.58-.9,7.75-3.29,5.87-9.71-.59-2-.92-5,.14-6.19s4.2-1.23,6.11-.67c12.3,3.63,23.32,9.49,31.61,19.63A16.74,16.74,0,0,1,258.9,41c1,2.34,0,3.94-2.26,4.58a29.68,29.68,0,0,1-5.17.74c-4.09.38-5.55,2.14-4.8,6.22a17.3,17.3,0,0,0,1.57,4.57,62.47,62.47,0,0,0,23.38,25.21A15.51,15.51,0,0,0,275.34,84c3.93,1.19,6.23-.23,7.07-4.29.36-1.71.43-3.48.83-5.18,1.06-4.58,3.87-5.67,7.12-2.28a79.78,79.78,0,0,1,10,12.55,59.55,59.55,0,0,1,8.4,24.21c.25,1.85-.89,3.88-1.39,5.83-1.84-.49-3.89-.63-5.49-1.55-6.19-3.54-8.48-2.67-9.87,4.42a51.57,51.57,0,0,0,7.84,39.7,17.83,17.83,0,0,0,3,3.35c2.15,1.92,4.26,1.8,6.13-.51a3.4,3.4,0,0,1,.45-.59c1.91-1.43,3.84-2.83,5.75-4.24,1.22,2.3,3.13,4.49,3.53,6.92,1.62,9.68,1.86,19.41-1.49,28.85a36.81,36.81,0,0,1-3.68,7.73c-2.49,3.81-5.1,3.75-8,.19-3.53-4.32-6-4.68-10.28-.83a41.37,41.37,0,0,0-13.87,25.44,61.2,61.2,0,0,0-.72,11.54c.22,5.06,2.54,6.35,7.46,5.59,2.65-.41,5.46.14,8.2.26-.52,2.68-.27,5.91-1.7,7.94-5.39,7.62-11.26,14.9-17.1,22.18a18,18,0,0,1-4.72,3.67c-6,3.71-9.05,2-9.17-5-.07-4.65-1.85-6.36-6.44-6.05a14.69,14.69,0,0,0-4,.78,70.19,70.19,0,0,0-31,22.16c-4.56,5.7-3.25,9.11,3.66,11.15a33.56,33.56,0,0,1,5.9,2.3c2.31,1.2,2.59,2.89.48,4.67a9.5,9.5,0,0,1-1.79,1.34c-11,5.48-22.18,10.29-34.66,11.09a3.85,3.85,0,0,1-1.12,0c-2.45-.59-4.89-1.22-7.33-1.83,1-2.3,1.55-4.83,2.93-6.84,2.93-4.3,2.55-7.37-2.52-8.92a93.57,93.57,0,0,0-17.2-3.26c-7.71-.84-15.51-.95-22.94,1.89-2.12.82-3.95,2.41-5.92,3.64l.58.55c4.27-1.57,8.46-4.11,12.84-4.5,7.14-.65,14.43-.13,21.62.37A39.09,39.09,0,0,1,187.16,301c4.18,1.52,4.53,3.61,1.87,7.08a24.72,24.72,0,0,0-2.76,4c-1.55,3.17-.58,5.49,2.91,6.17a30.47,30.47,0,0,0,8.53.36c11.22-1.09,21.41-5.53,31.54-10.1a16.34,16.34,0,0,0,2.57-1.54c4.33-3,4.16-6.06-.54-8.32a34.64,34.64,0,0,0-4.91-1.79c-6.34-1.93-7.33-4.32-3.06-9.47a68.08,68.08,0,0,1,30.51-21.52c6.54-2.25,8.28-.83,8.48,6,.15,5,3.35,7.48,8,5.61a18.87,18.87,0,0,0,7.44-4.85C284.12,265,290.18,257.05,296,249c1.77-2.43,3.4-5.8,1.19-8.71s-5.75-1.56-8.74-1c-5.13,1-6.69.17-6.78-5.14-.23-13.45,3.85-25.33,14-34.64,3.57-3.29,6.35-3.68,9.17.68,2.69,4.17,6.45,4,9.37-.21a33.27,33.27,0,0,0,4-8c1.25-3.63,2-7.44,3-11.17V168.12C320.48,165,320,161.76,319.1,158.69Z"/><path d="M142.19,302.64c-1.71,2.34-1,4.31.68,6.39,2.19,2.65,5.3,5.49,3.55,9.18-1.86,4-6.2,3.2-9.72,3a94.13,94.13,0,0,1-31.8-7.83A18.45,18.45,0,0,1,102,311.7c-4.54-3.11-4.46-6.32.2-9.2.21-.13.45-.22.67-.34,6.71-3.72,7.23-5.93,2-11.78-7.69-8.62-16.63-15.47-28.18-18.17a28.71,28.71,0,0,0-3.31-.6c-7-.8-7.73,0-7.13,6.89.26,3,1.46,6.61-1.75,8.65s-6.31-.19-9-1.91a66.27,66.27,0,0,1-24.74-28.42,19,19,0,0,1-1-2.83c-1.52-5.38.61-7.72,6-6.67.49.1,1,.14,1.47.26,6.21,1.49,7.24.75,7.21-5.54-.06-14.69-6.49-26.46-17-36.15-4.27-3.92-6.21-3.18-8.09,2.41,0,.12-.09.23-.14.35-1.22,3.09-1.89,7.12-5.94,7.34-3.76.21-5.29-3.42-6.74-6.27C0,196.91-.95,183.2.73,169.22,1,167.29,2.51,164.49,4,164s3.9,1.33,5.82,2.31a7.82,7.82,0,0,1,1.85,1.83c3.74,4.07,5.44,4,8.3-1,6.59-11.36,8.22-23.75,6.79-36.55-.72-6.45-3.16-7.46-9.19-4.75a22.08,22.08,0,0,1-2.07.87c-5.66,1.91-8.85-.25-8.74-6.24A49.58,49.58,0,0,1,13.55,97,77,77,0,0,1,24.27,82.23c4.42-4.75,7.9-3.35,9.15,3a5.48,5.48,0,0,1,.29,1.46c-.47,6,3,7.74,8.8,3.79A70.9,70.9,0,0,0,66.27,63c3.1-6.15,1.64-8.29-5.17-8.92a20.84,20.84,0,0,1-3.33-.55c-4.33-1.13-6.06-4.09-3.64-7.83,2.66-4.12,6.33-7.58,9.55-11.33l.5.51c-2.79,3.34-5.88,6.48-8.3,10.07-2.92,4.34-1.43,7,3.75,7.61,1.61.19,3.24.3,4.83.61,3.39.65,5,2.82,4.29,6.19a17.06,17.06,0,0,1-2.33,6.26c-4.17,5.89-8.23,12-13.13,17.21A62.32,62.32,0,0,1,40.07,93.08c-3.79,2.32-6.39.63-7.25-3.71a16.26,16.26,0,0,0-.52-2.94c-.77-1.86-1.74-3.63-2.63-5.44-1.71.85-3.45,1.67-5.13,2.58a5.7,5.7,0,0,0-1.32,1.32A63.51,63.51,0,0,0,8.67,114.45,27.45,27.45,0,0,0,8,121.13c.24,4.49,2.52,5.91,6.84,4.45,1.77-.6,3.43-1.49,5.18-2.16,2.94-1.13,5.22-.12,6.58,2.56a15.5,15.5,0,0,1,1.49,5,60.07,60.07,0,0,1-3.92,30.5A41,41,0,0,1,19.53,170c-2.52,3.48-4.7,3.41-7.66.34a20.73,20.73,0,0,0-3.12-3.22c-1.37-.88-3.19-2-4.55-1.67-1,.21-2.1,2.4-2.26,3.81-1.54,13.48-.78,26.71,5.33,39.13,1.32,2.68,2.57,6.85,6.11,6,2.06-.51,3.75-4.21,4.78-6.8,2.34-5.9,5.47-7.26,9.86-2.59a91,91,0,0,1,13.41,17.81,36,36,0,0,1,4.1,22.11c-.63,4.94-2.36,5.67-7.22,4.51-2.26-.54-4.75-.15-7.14-.18.29,2.48.56,5,.88,7.45a3.68,3.68,0,0,0,.47,1,66,66,0,0,0,21.75,25.29A28.62,28.62,0,0,0,59.81,286c3.53,1.43,5.34.25,5.4-3.5a46.59,46.59,0,0,0-.66-6.3c-.49-3.92.77-5.69,4.66-6.07a19.19,19.19,0,0,1,4.84.24c11.49,1.8,20.65,7.92,28.64,15.93a41.72,41.72,0,0,1,6.37,8.65c1.66,2.89.3,5.28-2.53,6.8-.87.47-1.82.83-2.69,1.3-5.14,2.77-5.47,5.78-.12,8a154.28,154.28,0,0,0,23.39,7.51c4.87,1.17,10.12,1.12,15.17.91,3.32-.14,4.16-2.33,2.57-5.3a60.5,60.5,0,0,0-3.81-5.54c-1.61-2.33-1.94-4.57.57-6.55Z"/><path class="cls-1" d="M141.61,302.09c-2.51,2-2.18,4.22-.57,6.55a60.5,60.5,0,0,1,3.81,5.54c1.59,3,.75,5.16-2.57,5.3-5.05.21-10.3.26-15.17-.91a154.28,154.28,0,0,1-23.39-7.51c-5.35-2.23-5-5.24.12-8,.87-.47,1.82-.83,2.69-1.3,2.83-1.52,4.19-3.91,2.53-6.8a41.72,41.72,0,0,0-6.37-8.65c-8-8-17.15-14.13-28.64-15.93a19.19,19.19,0,0,0-4.84-.24c-3.89.38-5.15,2.15-4.66,6.07a46.59,46.59,0,0,1,.66,6.3c-.06,3.75-1.87,4.93-5.4,3.5a28.62,28.62,0,0,1-5.54-3.09,66,66,0,0,1-21.75-25.29,3.68,3.68,0,0,1-.47-1c-.32-2.48-.59-5-.88-7.45,2.39,0,4.88-.36,7.14.18,4.86,1.16,6.59.43,7.22-4.51a36,36,0,0,0-4.1-22.11A91,91,0,0,0,28,204.91c-4.39-4.67-7.52-3.31-9.86,2.59-1,2.59-2.72,6.29-4.78,6.8-3.54.89-4.79-3.28-6.11-6C1.16,195.92.4,182.69,1.94,169.21c.16-1.41,1.26-3.6,2.26-3.81,1.36-.29,3.18.79,4.55,1.67a20.73,20.73,0,0,1,3.12,3.22c3,3.07,5.14,3.14,7.66-.34a41,41,0,0,0,4.65-8.49A60.07,60.07,0,0,0,28.1,131a15.5,15.5,0,0,0-1.49-5c-1.36-2.68-3.64-3.69-6.58-2.56-1.75.67-3.41,1.56-5.18,2.16-4.32,1.46-6.6,0-6.84-4.45a27.45,27.45,0,0,1,.66-6.68A63.51,63.51,0,0,1,23.22,84.89a5.7,5.7,0,0,1,1.32-1.32c1.68-.91,3.42-1.73,5.13-2.58.89,1.81,1.86,3.58,2.63,5.44a16.26,16.26,0,0,1,.52,2.94c.86,4.34,3.46,6,7.25,3.71A62.32,62.32,0,0,0,53.29,82.85c4.9-5.26,9-11.32,13.13-17.21a17.06,17.06,0,0,0,2.33-6.26c.72-3.37-.9-5.54-4.29-6.19-1.59-.31-3.22-.42-4.83-.61C54.45,52,53,49.31,55.88,45c2.42-3.59,5.51-6.73,8.3-10.07,4.75-2.94,9.43-6,14.28-8.77a27.6,27.6,0,0,1,6.65-2.44c8.29-2.2,10.1-.43,8.06,7.73-1.27,5.11.89,7.9,7,7.65A71.26,71.26,0,0,0,130,31.67a37.42,37.42,0,0,0,7.72-5.22c4.75-4.2,4.3-6.79-.7-10.67-2.13-1.64-3.52-4.24-5.25-6.4,2.34-1.62,4.48-4,7.08-4.73a66.56,66.56,0,0,1,33-.49,19.25,19.25,0,0,1,3.88,1.37c4,1.85,4.21,3.78.91,6.58-1.33,1.13-2.85,2-4.14,3.2-3.16,2.87-3.19,6.09-.15,9.07a8,8,0,0,0,1.77,1.36C186.26,32.25,199,36,213,34.07c6.58-.9,7.75-3.29,5.87-9.71-.59-2-.92-5,.14-6.19s4.2-1.23,6.11-.67c12.3,3.63,23.32,9.49,31.61,19.63A16.74,16.74,0,0,1,258.9,41c1,2.34,0,3.94-2.26,4.58a29.68,29.68,0,0,1-5.17.74c-4.09.38-5.55,2.14-4.8,6.22a17.3,17.3,0,0,0,1.57,4.57,62.47,62.47,0,0,0,23.38,25.21A15.51,15.51,0,0,0,275.34,84c3.93,1.19,6.23-.23,7.07-4.29.36-1.71.43-3.48.83-5.18,1.06-4.58,3.87-5.67,7.12-2.28a79.78,79.78,0,0,1,10,12.55,59.55,59.55,0,0,1,8.4,24.21c.25,1.85-.89,3.88-1.39,5.83-1.84-.49-3.89-.63-5.49-1.55-6.19-3.54-8.48-2.67-9.87,4.42a51.57,51.57,0,0,0,7.84,39.7,17.83,17.83,0,0,0,3,3.35c2.15,1.92,4.26,1.8,6.13-.51a3.4,3.4,0,0,1,.45-.59c1.91-1.43,3.84-2.83,5.75-4.24,1.22,2.3,3.13,4.49,3.53,6.92,1.62,9.68,1.86,19.41-1.49,28.85a36.81,36.81,0,0,1-3.68,7.73c-2.49,3.81-5.1,3.75-8,.19-3.53-4.32-6-4.68-10.28-.83a41.37,41.37,0,0,0-13.87,25.44,61.2,61.2,0,0,0-.72,11.54c.22,5.06,2.54,6.35,7.46,5.59,2.65-.41,5.46.14,8.2.26-.52,2.68-.27,5.91-1.7,7.94-5.39,7.62-11.26,14.9-17.1,22.18a18,18,0,0,1-4.72,3.67c-6,3.71-9.05,2-9.17-5-.07-4.65-1.85-6.36-6.44-6.05a14.69,14.69,0,0,0-4,.78,70.19,70.19,0,0,0-31,22.16c-4.56,5.7-3.25,9.11,3.66,11.15a33.56,33.56,0,0,1,5.9,2.3c2.31,1.2,2.59,2.89.48,4.67a9.5,9.5,0,0,1-1.79,1.34c-11,5.48-22.18,10.29-34.66,11.09a3.85,3.85,0,0,1-1.12,0c-2.45-.59-4.89-1.22-7.33-1.83,1-2.3,1.55-4.83,2.93-6.84,2.93-4.3,2.55-7.37-2.52-8.92a93.57,93.57,0,0,0-17.2-3.26c-7.71-.84-15.51-.95-22.94,1.89C145.41,299.27,143.58,300.86,141.61,302.09ZM160.46,35.82C90.64,35.77,34,92.4,33.81,162.35,33.66,232.46,90.38,289,160.94,289.13c69.61.11,126.37-56.75,126.48-126.7S230.64,35.88,160.46,35.82Z"/><path d="M160.46,35.82c70.18.06,127.07,56.79,127,126.61s-56.87,126.81-126.48,126.7C90.38,289,33.66,232.46,33.81,162.35,34,92.4,90.64,35.77,160.46,35.82Zm-.13,251.91c69.11-.45,123.16-54.82,125.29-121.12A124.85,124.85,0,0,0,161.31,37.36c-70.25-.43-125.17,56.23-125.8,124C34.9,228.52,88.34,286.83,160.33,287.73Z"/><path class="cls-1" d="M160.33,287.73c-72-.9-125.43-59.21-124.82-126.33.63-67.81,55.55-124.47,125.8-124A124.85,124.85,0,0,1,285.62,166.61C283.49,232.91,229.44,287.28,160.33,287.73Zm12.27-112.2.06.06-3.16-6.75c2.45.88,4.55,1.19,6.08,2.29s2.63,3.28,4.18,4.68a19.59,19.59,0,0,0,5.16,3.52c2.44,1.07,5.23,1.35,7.65,2.45,6.78,3.07,13.45,6.39,20.45,9.75l-5.34,3,28.71,11.79-3.63,4,33.81,10.26.7-1.2-25.94-24.35c-.58,2.12-1,3.47-1.43,5.19l-8-4.93,4.58-3.14L205,174.14a28.72,28.72,0,0,1,2.35-2.93c1.84-1.75,4-3.2,5.63-5.13,3.21-3.83,6.83-6.36,12.11-6.12,1.92.08,4.42,0,5.69-1.13,2.43-2.12,5.48-2,8-3.29a107.21,107.21,0,0,0,14.62-9.26c1.21-.9,1.22-3.44,1.78-5.22a22.92,22.92,0,0,0-4.86-.32c-7,1-13.9,2.17-20.84,3.28l-.37-1.22,7.81-4.55-4.36-3.33,8.24-4.56c.42,1.86.72,3.15,1.17,5.16l26.34-23.91-.74-1.23-34,9.71,3.77,4-28.94,11.34,5.07,3c-6.11,3.17-11.85,6.4-18.89,5.48a21.43,21.43,0,0,0-5.6.07c-2.7.36-4.79,1.81-5.09,4.69-.62,6.16-1.6,7.4-10.15,6.66,1.42-1.33,2.59-2.37,3.7-3.47q7-6.9,14-13.82l-.07.06,19.72-17.12-5.42-2.37,7-6.6c.85,1.78,1.46,3,2.34,4.88l19.71-29.59-.92-1L203.27,104l4.6,3.06-25.54,18,6,1.71-16.92,13.5c-2.19-4.15-3.4-7.82-2.19-12.12.42-1.5-.86-3.49-1.41-5.25-.25-.79-.89-1.54-.88-2.3,0-3.28.24-6.56.42-10.44,1.06-.11,2.73-.3,4.41-.44a50.07,50.07,0,0,0,7.07-.56,9.13,9.13,0,0,0,6.06-13c-.4-.8-1.26-1.84-2-1.89s-1.78.93-2.08,1.69c-1.16,3-3.42,3.62-6.31,3.42-2.19-.16-4.4,0-6.39,0,0-2.69.16-5.06,0-7.4-.5-5.94-2.75-10.92-8.44-13.61-1-.46-2.71-.57-3.43,0a3.43,3.43,0,0,0-.52,3.28c3.69,6.72,1.17,12.51-2,17.67-3.83.55-7.24,1-10.65,1.52-3.73.55-6.9-.32-9.22-3.49-.55-.75-1.14-1.48-1.86-2.4-2.88,2.92-3,6.09-1.95,9.27,1.09,3.46,3.93,5,7.35,5.56,4.44.66,9,.94,13.33,1.87,3.86.81,4.39,2.56,3.43,6.24a50.76,50.76,0,0,0-1.12,8.46c-.4,4.53-.68,9.07-1.09,14.53l-17.52-14L140.3,125,114.75,107c1.69-1.07,2.89-1.85,4.69-3L88.89,86.45l-.84,1L107.69,117l2.48-5.13,6.36,7.19-4.62,1.91c8.29,7.72,16.16,15.06,24.3,22.66-10,1.06-19.15.7-27.3-5.21l5-2.91L84.8,124.14l3.76-4.07c-11.77-3.23-22.79-6.87-34.08-9.46L54,111.77l26,23.61,1.53-5L89.48,135l-4.07,3.24,8.35,5.09a26,26,0,0,1-2.82,0c-5.9-1-11.79-2-17.71-2.89-1.19-.17-3.1.06-3.57.81a3.74,3.74,0,0,0,.47,3.64,61.65,61.65,0,0,0,7.26,4.92c.89.56,2.43.7,2.75,1.44,1.7,3.86,5.12,4.39,8.61,5a21,21,0,0,1,3,1c2.71.93,5.37,2.45,8.14,2.66,3.34.25,6.22.84,8.67,3.21s4.72,4.4,7.09,6.59l-.06-.06,3.62,3.15L85.47,192.29l4.82,3.06-8.38,4.91-1.32-5.16L54.52,219.55l.73,1.16,33.9-10.36-3.54-4,28.67-11.79-5.23-3.08c7.79-3.72,15.07-7.24,22.39-10.68,2.4-1.13,4.55-3.4,7.72-1.45.62.39,2.42-.51,3.27-1.28,1.84-1.65,3.35-3.66,5.11-5.41a19.24,19.24,0,0,1,2.81-2l1.18,1.08a45.27,45.27,0,0,1-2.51,4.41c-1.35,1.87-2.91,3.58-4.38,5.36l.12-.12a15.42,15.42,0,0,0-3.14,1.76q-13.26,12.17-26.4,24.46c-.69.64-1.25,1.42-2.08,2.36l4.07,1.62-6.15,7-2.39-4.79L89,243.36l.93,1,30.55-17.62-4.66-3,25.44-18-5.83-1.87,16.3-13,1.11.38c.14,4.44-1.18,9.71.77,13.13,2.69,4.72-.13,9.08,1.83,13.89-3.9,0-7.36-.14-10.79,0-6.79.34-11.72,6.43-10.14,12.48a10.11,10.11,0,0,0,1.77,2.66c.83-.65,2.12-1.16,2.39-2,1.14-3.58,3.77-3.66,6.61-3s5.45,1.62,8.77,2.63c-2.61,6.15-.42,11.07,4.76,14.84.92.68,2.68,1.51,3.22,1.12.89-.65,1.31-2.19,1.58-3.43.52-2.38.24-5.1,1.29-7.18,2.06-4,4.12-7.53,10.2-7.85,5.49-.3,10.35-2.33,12.52,4.85A8.11,8.11,0,0,0,185.37,220c-2.28-.93-4.85-1.15-7.22-1.88a36.24,36.24,0,0,1-7.28-2.69c-2.41-1.37-3.79-3.36-2-6.5.86-1.5.77-3.61.9-5.46.32-4.2.51-8.41.79-13.31l17.13,13.74L182,205.81l25.41,17.95-4.71,3,30.52,17.58.93-1.07-19.61-29.33c-1,1.87-1.73,3.1-2.54,4.57l-6.56-6.67,4.68-1.89c-.88-.94-1.34-1.5-1.87-2-8.33-7.74-16.64-15.5-25-23.18C179.79,181.57,176.15,178.6,172.6,175.53Z"/><path d="M115.65,169.67c-2.37-2.19-4.78-4.34-7.09-6.59s-5.33-3-8.67-3.21c-2.77-.21-5.43-1.73-8.14-2.66a21,21,0,0,0-3-1c-3.49-.6-6.91-1.13-8.61-5-.32-.74-1.86-.88-2.75-1.44a61.65,61.65,0,0,1-7.26-4.92,3.74,3.74,0,0,1-.47-3.64c.47-.75,2.38-1,3.57-.81,5.92.86,11.81,1.92,17.71,2.89a26,26,0,0,0,2.82,0l-8.35-5.09L89.48,135l-7.88-4.68-1.53,5L54,111.77l.44-1.16c11.29,2.59,22.31,6.23,34.08,9.46l-3.76,4.07,29.08,11.32-5,2.91c8.15,5.91,17.3,6.27,27.3,5.21-8.14-7.6-16-14.94-24.3-22.66l4.62-1.91-6.36-7.19L107.69,117,88.05,87.49l.84-1L119.44,104c-1.8,1.15-3,1.93-4.69,3L140.3,125l-5.89,1.79,17.52,14c.41-5.46.69-10,1.09-14.53a50.76,50.76,0,0,1,1.12-8.46c1-3.68.43-5.43-3.43-6.24-4.38-.93-8.89-1.21-13.33-1.87-3.42-.51-6.26-2.1-7.35-5.56-1-3.18-.93-6.35,1.95-9.27.72.92,1.31,1.65,1.86,2.4,2.32,3.17,5.49,4,9.22,3.49,3.41-.5,6.82-1,10.65-1.52,3.19-5.16,5.71-11,2-17.67a3.43,3.43,0,0,1,.52-3.28c.72-.57,2.45-.46,3.43,0,5.69,2.69,7.94,7.67,8.44,13.61.19,2.34,0,4.71,0,7.4,2,0,4.2-.13,6.39,0,2.89.2,5.15-.37,6.31-3.42.3-.76,1.41-1.74,2.08-1.69s1.57,1.09,2,1.89a9.13,9.13,0,0,1-6.06,13,50.07,50.07,0,0,1-7.07.56c-1.68.14-3.35.33-4.41.44-.18,3.88-.38,7.16-.42,10.44,0,.76.63,1.51.88,2.3.55,1.76,1.83,3.75,1.41,5.25-1.21,4.3,0,8,2.19,12.12l16.92-13.5-6-1.71,25.54-18-4.6-3.06,30.54-17.58.92,1L215,117c-.88-1.85-1.49-3.1-2.34-4.88l-7,6.6,5.42,2.37-19.72,17.12a22.19,22.19,0,0,1,2.15-2.81c4.84-4.62,9.74-9.18,14.85-14l-3.56-1.35,8.52-10.1,1.95,4.2L231.13,90.3l-.47-.49L206,104l4.46,2.89-24.89,17.49,5.54,1.85c-6.27,5-12,9.51-17.69,14.2a11.85,11.85,0,0,0-2.53,3.88c-1.9,3.79.83,6.67,1.91,10.33,4.16-3.89,7.94-7.52,11.84-11,2.18-2,4.55-3.68,6.84-5.5q-7,6.91-14,13.82c-1.11,1.1-2.28,2.14-3.7,3.47,8.55.74,9.53-.5,10.15-6.66.3-2.88,2.39-4.33,5.09-4.69a21.43,21.43,0,0,1,5.6-.07c7,.92,12.78-2.31,18.89-5.48l-5.07-3,28.94-11.34-3.77-4,34-9.71.74,1.23L242,135.52c-.45-2-.75-3.3-1.17-5.16l-8.24,4.56,4.36,3.33-7.81,4.55.37,1.22c6.94-1.11,13.88-2.28,20.84-3.28a22.92,22.92,0,0,1,4.86.32c-.56,1.78-.57,4.32-1.78,5.22a107.21,107.21,0,0,1-14.62,9.26c-2.49,1.27-5.54,1.17-8,3.29-1.27,1.11-3.77,1.21-5.69,1.13-5.28-.24-8.9,2.29-12.11,6.12-1.61,1.93-3.79,3.38-5.63,5.13a28.72,28.72,0,0,0-2.35,2.93l31.45,18.07-4.58,3.14,8,4.93c.47-1.72.85-3.07,1.43-5.19l25.94,24.35-.7,1.2-33.81-10.26,3.63-4-28.71-11.79,5.34-3c-7-3.36-13.67-6.68-20.45-9.75-2.42-1.1-5.21-1.38-7.65-2.45a19.59,19.59,0,0,1-5.16-3.52c-1.55-1.4-2.52-3.49-4.18-4.68s-3.63-1.41-6.08-2.29l3.16,6.75a54.21,54.21,0,0,1-2.7,6.68c-1.8,3.22-.68,5.37,1.92,7.35,3.07,2.34,6.08,4.78,9.1,7.2s6.11,4.93,9.65,7.79l-5.67,1.7,25,17.6-4.43,2.9,24.28,13.86.52-.72-15.48-23.24c-.84,1.65-1.41,2.79-2.11,4.15l-9.26-9.94,4.16-1.57c-.81-.89-1.34-1.56-2-2.14Q190.33,192.93,175,178.64a23.8,23.8,0,0,1-2.4-3.11c3.55,3.07,7.19,6,10.64,9.21,8.39,7.68,16.7,15.44,25,23.18.53.5,1,1.06,1.87,2l-4.68,1.89,6.56,6.67c.81-1.47,1.5-2.7,2.54-4.57l19.61,29.33-.93,1.07-30.52-17.58,4.71-3L182,205.81l5.67-1.95-17.13-13.74c-.28,4.9-.47,9.11-.79,13.31-.13,1.85,0,4-.9,5.46-1.79,3.14-.41,5.13,2,6.5a36.24,36.24,0,0,0,7.28,2.69c2.37.73,4.94.95,7.22,1.88a8.11,8.11,0,0,1,2.24,13.49c-2.17-7.18-7-5.15-12.52-4.85-6.08.32-8.14,3.8-10.2,7.85-1,2.08-.77,4.8-1.29,7.18-.27,1.24-.69,2.78-1.58,3.43-.54.39-2.3-.44-3.22-1.12-5.18-3.77-7.37-8.69-4.76-14.84-3.32-1-6-2-8.77-2.63s-5.47-.58-6.61,3c-.27.83-1.56,1.34-2.39,2a10.11,10.11,0,0,1-1.77-2.66c-1.58-6.05,3.35-12.14,10.14-12.48,3.43-.17,6.89,0,10.79,0-2-4.81.86-9.17-1.83-13.89-1.95-3.42-.63-8.69-.77-13.13l-1.11-.38-16.3,13,5.83,1.87-25.44,18,4.66,3L89.92,244.34l-.93-1,19.68-29.53,2.39,4.79,6.15-7L113.14,210c.83-.94,1.39-1.72,2.08-2.36q13.17-12.26,26.4-24.46a15.42,15.42,0,0,1,3.14-1.76q-9.47,9-18.94,18.07c-3.37,3.22-6.76,6.42-10.38,9.85l4,1.56-9,10.05c-.74-1.54-1.31-2.71-2.07-4.3L92.75,240.19l.67.53,24.4-14-4.61-2.79,25-17.51-5.53-1.89c6-4.83,11.62-9.19,17.07-13.7a15.91,15.91,0,0,0,2.74-3.73c2.51-3.91-.56-6.93-1.51-10.65l-6.32,5.09c1.47-1.78,3-3.49,4.38-5.36a45.27,45.27,0,0,0,2.51-4.41l-1.18-1.08a19.24,19.24,0,0,0-2.81,2c-1.76,1.75-3.27,3.76-5.11,5.41-.85.77-2.65,1.67-3.27,1.28-3.17-1.95-5.32.32-7.72,1.45-7.32,3.44-14.6,7-22.39,10.68l5.23,3.08L85.61,206.31l3.54,4-33.9,10.36-.73-1.16L80.59,195.1l1.32,5.16,8.38-4.91-4.82-3.06,33.74-19.53-3.62-3.15c5.68.87,9.58-2.19,13.79-5.79-2.63-.67-12.51,3.07-13.56,4.78A2.83,2.83,0,0,0,115.65,169.67Zm45,51.72.37-3.83c-2.7.77-5,1.73-7.43,2-2.56.31-5.2-.06-7.8,0a14.86,14.86,0,0,0-3.69.51c-5.18,1.44-7.6,6.59-5.16,12.35,1-4.2,3.43-6,7.05-5.56a32.24,32.24,0,0,1,5.34,1.6c2.89.86,5.23.6,7-2.39,1.08-1.82,2.91-3.19,4.4-4.76-1.11,1.73-2.2,3.47-3.33,5.19-4.18,6.38-4.94,15.56,4.31,19.19.38-2.79.34-5.7,1.25-8.28s3-4.86,4.19-7.43c2.28-4.83,1.16-10.46-2.8-14.63Zm-46.35-100,36.36,33.89c.44-2.79.31-5.32,1.27-7.33,1.68-3.53.36-5.45-2.36-7.52-5.92-4.5-11.66-9.24-18-14.3l5.62-1.77c-8.49-6-16.57-11.65-25-17.58l4.52-2.85L92.05,89.84l-.43.57C96.81,98.2,102,106,107.4,114.06l1.95-4c3.13,3.42,6.06,6.64,9,9.82Zm16.42,58.24.28-1c-1.3-.38-2.61-.71-3.88-1.16-1-.36-2.36-.6-2.88-1.35-1.88-2.72-4.12-2.17-6.44-1-1.68.81-3.26,1.85-4.88,2.78L88.1,192.24l4.72,3.11-12,7.23c-.41-1.92-.67-3.15-1-4.86L59.52,216.9l.54.82,26.36-7.94-3.49-3.89,28.2-11.4-5-3Zm80.05,14.78L239.07,206c-1.4,1.55-2.34,2.59-3.52,3.88L262,217.7l.39-.9-20.15-19c-.43,1.78-.73,3-1.16,4.76l-11.9-7.2,4.63-3.16c-9-5.18-17.61-10.15-26.24-15.09-2.66-1.52-5.35-4.3-8.07,0-.19.31-.92.28-1.39.42l-7.07,2,24.94,12ZM205,155.13l-7.78-.58c10.88-2,10.88-2,12.2-4.48l-18.19,1c2.39-.82,4-1.74,5.61-1.83,3.73-.23,7.5.15,11.23-.1,3.29-.23,6.5-1.07,8.45-4.93-2,0-3.52,0-5,0-6.61.26-13.21.63-19.81.81-4.84.14-6.05,1.1-6.85,6-.69,4.25-2.41,5.77-6.74,6-1.72.07-3.44.16-5.14.24-.51,2.66-.84,5-1.41,7.29-1,4,.18,5.22,4.89,4.55l-2.66-7.37c2.45,2.34,2.74,6.64,7.89,6.37l-2.46-5.65c1.86,1.42,3,3.21,4.64,4.47.64.51,2.19-.14,3.33-.27A17.43,17.43,0,0,0,185.9,164a35,35,0,0,0-2.41-2.76c6.06,4,6.94,4.21,10.07,2.17l-5.87-3.72c4,.59,7.35,4.26,11.92.67l-8.86-2.67C202.49,158.87,203.08,158.8,205,155.13Zm-96.84-11.06c2.39,4.28,5.93,4.9,9.52,5.09s7-.19,10.48,0c1.54.1,3,1.08,5,1.84H115.34c3.1,3.91,7.86,2.25,11.9,3.6l-7.6.51c2,3.33,2,3.33,14.26,2.53l-9.1,2.79c4.88,3.22,8.22-.34,12.06-.62l-6.12,3.62c4.62,3.14,7.14-1.07,10.25-2.88l.78,1.06-5.66,4c1.52.81,2.65,1.78,3,1.55,2.15-1.33,4.12-2.94,6.41-4.65-.81,1.68-1.57,3.24-2.52,5.18,5.51.92,5.24-4.34,8.09-6.16-1,2.42-2,4.84-3.33,8.18,1.76-.52,3.14-.5,3.51-1.1,2.33-3.75,2.54-7.6-.57-11.55-.82-.06-2-.16-3.29-.2-5.37-.19-7.12-1.42-7.67-6.6-.43-4.12-2.76-5.16-6.27-5.3-7-.28-14-.64-20.93-.94C111.28,144,110,144.07,108.12,144.07Zm4.35-2.09-6.58-3.4,4.69-3-28.3-11,3.42-3.95-27.36-7.73-.33.55,21.18,19.24c.45-1.84.74-3,1.15-4.67l12,7L88.17,138C95.51,144.27,103.47,145.71,112.47,142Zm124.08-21.35,3.2,4-28.22,10.92,4.85,3-8.56,4.22c3.05,0,5.88-.78,7.94.14,7.62,3.39,12.54-1.57,18.52-4.74l-4.43-3.2L242,128c.37,1.88.62,3.12.94,4.77L264.2,113.4l-.32-.49Zm18.31,21.49c-1.26-.42-1.62-.66-1.94-.62q-16.51,1.83-33,3.74a5.5,5.5,0,0,0-2.75.89c-3.58,2.89-7,5.9-10.83,9.1,4.14,2.75,8,5.24,13,4.06l-9.11-4.15.41-.91c2.24.91,4.44,2,6.75,2.69a29.94,29.94,0,0,0,7.6,1.76c2.16.09,4.36-.86,6.54-1.34l-.29-1-16.43-3.7.31-1.21a27.15,27.15,0,0,0,3.49.91c6.27.78,12.54,1.73,18.84,2.06,1.85.1,3.8-1.67,5.71-2.58l-.5-1.06-24.36-1.22c8-.35,16-.14,23.9-.45a22.24,22.24,0,0,0,8.49-2.39C252.34,146,253.33,143.9,254.86,142.12Zm-137,12.63a21.29,21.29,0,0,1-3.44-2.71c-4-4.77-8.8-7.58-15.39-7a50.81,50.81,0,0,1-10.43-.62c-5.88-.77-11.72-1.79-17.73-2.72-.37,3.5,2.09,5,4.38,5.82a32.24,32.24,0,0,0,9.45,1.71c7.13.24,14.27.07,21.4.07l.08.35-24.8,1.21c4,5.3,9.12,4.1,13.78,3.58,4.91-.55,9.75-1.76,14.62-2.68l.22,1-16.78,3.66c7.47,4.84,14.08.13,20.91-2.09l.24.88-9.07,4.19C109,160.72,115,158.38,117.83,154.75Zm51-5.31c-3.43,3.14-7,5.77-9.75,9.11a34,34,0,0,0-6.25,10.75,13.22,13.22,0,0,0,1.79,12.38C170.58,169.05,175.16,158.65,168.87,149.44Zm-14.49,11.85c4.69-4.61,9.35-8.78,13.47-13.41,3.13-3.51,2.39-9.7-.79-12.66l-8.85,6.92C151.91,147.06,150.49,153.81,154.38,161.29Zm3-82.33c-.24.58-.51.93-.49,1.26a4.56,4.56,0,0,0,.41,1.8c2.74,5.33,1.65,10.33-1,15.36s-1.61,10.33,2.61,14.81c-.43-5.12,1.53-8.83,5.95-11.28a3.29,3.29,0,0,0,1.54-2.26c.12-3.35.41-6.8-.21-10.05A11.68,11.68,0,0,0,157.36,79Zm-2.67,116.77c13.38-9.17,17.87-16.89,14.26-24.53-4.23,3.69-8.66,7.1-12.51,11.06C152.82,186,152.6,190.61,154.69,195.73ZM131.89,97.2c-2.61,6.29.15,10.49,6.81,11.52,6.42,1,13.81-.75,18.54,6.08-.93-3.24-2.4-6.1-3.24-9.14-1.31-4.67-2.43-5.74-7.11-4.39C141,103,135.83,102.68,131.89,97.2Zm28.27,14.06c4.79-1,9.38-2,14-2.86,1.46-.28,3-.12,4.45-.45,5.47-1.25,7.58-7.55,4.16-12.2-3.41,5.11-3.41,5.11-10.37,4.8C164.71,100.21,159.78,104.91,160.16,111.26Zm7.56,75.28c-3.93,3.47-7.76,6.5-11.17,10s-3.16,7.94.49,11C170.27,200.12,171.09,194.65,167.72,186.54ZM154.4,143.8c3.94-3.35,8-6.38,11.56-10a7.35,7.35,0,0,0-.21-10.8C157.06,127.28,150.31,135.52,154.4,143.8Zm15.75,84.58c3-.59,5.79-.94,8.47-1.75,3.75-1.14,6.58-.38,8.54,3.13a9.08,9.08,0,0,0,1.17,1.31c1.67-6.54-.39-9.72-7.19-11-5.36-1-10.82-1.66-14.66-6.56.51,2.49,1.63,4.56,2.26,6.78A78.13,78.13,0,0,1,170.15,228.38Zm-5.06-116.7c-10,4.29-13.79,11.24-9.71,17.39,2.1-1.71,4.12-3.55,6.33-5.12C166.69,120.42,167.5,117.82,165.09,111.68Zm2.75,90-8.22,5.66a7.5,7.5,0,0,0-3.53,7.64,3.08,3.08,0,0,0,2.32,1.87C164.8,216.36,170.13,207.59,167.84,201.65Zm-32.15-35.27-10.75,8.29c2.87,2.91,8,.33,12.26-6.19Zm53.13,0c-.28.7-1.06,1.69-1,2.61.19,2.29,7.37,7.51,9.79,7.24a5.92,5.92,0,0,0,1.85-1,6.55,6.55,0,0,0-1.19-1.94C195.28,171,192.18,168.84,188.82,166.39Zm-55.69-.14c-2.68-1.05-10.94,2.84-13.09,6C123.38,174.11,128.81,171.69,133.13,166.25Zm72.38,6c-4-2.59-7.37-4.9-10.9-6.91-.6-.34-1.91.58-3,.94C195.48,171.38,200.56,173.82,205.51,172.21Zm-22-4.55-.9,1C184,174.3,190,178.71,194,176.86Zm-60.35-8.31-10.47,5.27c1.87,2.49,5.15,2,9.93-1C124.75,162.26,124.82,161,123.16,159.35Zm89.1,5.33-12-5.83c.61,2.05.58,3.71,1.39,4.41C205.27,166.32,210.07,166.9,212.26,164.68Zm-16-2.12-.46,1.34c4.64,5.29,10.49,7.21,13.12,4.06Zm-66.19,14.23c5,1.63,11-3.06,12-8.84C136.65,169.14,135.12,174.79,130.11,176.79ZM147.2,169c-5.57.48-6,6-10,8.12C141.26,178.69,146,174.67,147.2,169Zm30,0c2,6.11,6.09,9.46,10.12,8.07C183.54,174.9,182.94,169.52,177.23,169.06Zm-68.73-8c3.69,2.55,7.85,1.53,12.48-2.71C115.8,156.28,113.07,161,108.5,161Zm107.63,1.12c-7.51-4.88-9.71-5.4-12.08-2.89C207.62,161.26,210.9,163.62,216.13,162.15Zm-74.85-13.89c-.17,6.45,1.93,8.24,7,6.49Z"/><path class="cls-1" d="M144.64,181.52l6.32-5.09c.95,3.72,4,6.74,1.51,10.65a15.91,15.91,0,0,1-2.74,3.73c-5.45,4.51-11,8.87-17.07,13.7l5.53,1.89-25,17.51,4.61,2.79-24.4,14-.67-.53,15.63-23.56c.76,1.59,1.33,2.76,2.07,4.3l9-10.05-4-1.56c3.62-3.43,7-6.63,10.38-9.85q9.48-9,18.94-18.07Z"/><path class="cls-1" d="M114.31,121.42l4-1.49c-2.89-3.18-5.82-6.4-9-9.82l-1.95,4C102,106,96.81,98.2,91.62,90.41l.43-.57L116.74,104l-4.52,2.85c8.41,5.93,16.49,11.61,25,17.58l-5.62,1.77c6.34,5.06,12.08,9.8,18,14.3,2.72,2.07,4,4,2.36,7.52-1,2-.83,4.54-1.27,7.33Z"/><path class="cls-1" d="M172.6,175.53a23.8,23.8,0,0,0,2.4,3.11q15.3,14.33,30.66,28.57c.62.58,1.15,1.25,2,2.14l-4.16,1.57,9.26,9.94c.7-1.36,1.27-2.5,2.11-4.15L230.31,240l-.52.72-24.28-13.86,4.43-2.9-25-17.6,5.67-1.7c-3.54-2.86-6.58-5.34-9.65-7.79s-6-4.86-9.1-7.2c-2.6-2-3.72-4.13-1.92-7.35a54.21,54.21,0,0,0,2.7-6.68Z"/><path class="cls-1" d="M191.44,138.11c-2.29,1.82-4.66,3.55-6.84,5.5-3.9,3.49-7.68,7.12-11.84,11-1.08-3.66-3.81-6.54-1.91-10.33a11.85,11.85,0,0,1,2.53-3.88c5.64-4.69,11.42-9.2,17.69-14.2l-5.54-1.85,24.89-17.49L206,104l24.7-14.17.47.49-15.85,23.85-1.95-4.2-8.52,10.1,3.56,1.35c-5.11,4.78-10,9.34-14.85,14a22.19,22.19,0,0,0-2.15,2.81Z"/><path class="cls-1" d="M130.73,179.66l-24.65,11.82,5,3-28.2,11.4,3.49,3.89-26.36,7.94-.54-.82,20.22-19.18c.37,1.71.63,2.94,1,4.86l12-7.23-4.72-3.11,24.83-14.32c1.62-.93,3.2-2,4.88-2.78,2.32-1.13,4.56-1.68,6.44,1,.52.75,1.87,1,2.88,1.35,1.27.45,2.58.78,3.88,1.16Z"/><path class="cls-1" d="M210.78,194.44l5.16-2.92-24.94-12,7.07-2c.47-.14,1.2-.11,1.39-.42,2.72-4.3,5.41-1.52,8.07,0,8.63,4.94,17.24,9.91,26.24,15.09l-4.63,3.16,11.9,7.2c.43-1.74.73-3,1.16-4.76l20.15,19-.39.9-26.41-7.86c1.18-1.29,2.12-2.33,3.52-3.88Z"/><path class="cls-1" d="M205,155.13c-1.88,3.67-2.47,3.74-14.21,2.53l8.86,2.67c-4.57,3.59-8-.08-11.92-.67l5.87,3.72c-3.13,2-4,1.8-10.07-2.17A35,35,0,0,1,185.9,164a17.43,17.43,0,0,1,1.27,2.56c-1.14.13-2.69.78-3.33.27-1.6-1.26-2.78-3.05-4.64-4.47l2.46,5.65c-5.15.27-5.44-4-7.89-6.37l2.66,7.37c-4.71.67-5.89-.59-4.89-4.55.57-2.28.9-4.63,1.41-7.29,1.7-.08,3.42-.17,5.14-.24,4.33-.19,6-1.71,6.74-6,.8-4.86,2-5.82,6.85-6,6.6-.18,13.2-.55,19.81-.81,1.47-.06,2.94,0,5,0-1.95,3.86-5.16,4.7-8.45,4.93-3.73.25-7.5-.13-11.23.1-1.64.09-3.22,1-5.61,1.83l18.19-1c-1.32,2.48-1.32,2.48-12.2,4.48Z"/><path class="cls-1" d="M108.12,144.07c1.86,0,3.16,0,4.45,0,7,.3,14,.66,20.93.94,3.51.14,5.84,1.18,6.27,5.3.55,5.18,2.3,6.41,7.67,6.6,1.24,0,2.47.14,3.29.2,3.11,3.95,2.9,7.8.57,11.55-.37.6-1.75.58-3.51,1.1,1.36-3.34,2.34-5.76,3.33-8.18-2.85,1.82-2.58,7.08-8.09,6.16.95-1.94,1.71-3.5,2.52-5.18-2.29,1.71-4.26,3.32-6.41,4.65-.38.23-1.51-.74-3-1.55l5.66-4-.78-1.06c-3.11,1.81-5.63,6-10.25,2.88l6.12-3.62c-3.84.28-7.18,3.84-12.06.62l9.1-2.79c-12.31.8-12.31.8-14.26-2.53l7.6-.51c-4-1.35-8.8.31-11.9-3.6h17.78c-2-.76-3.46-1.74-5-1.84-3.48-.23-7,.14-10.48,0S110.51,148.35,108.12,144.07Z"/><path class="cls-1" d="M112.47,142c-9,3.73-17,2.29-24.3-4l4.22-2.93-12-7c-.41,1.66-.7,2.83-1.15,4.67L58,113.47l.33-.55,27.36,7.73-3.42,3.95,28.3,11-4.69,3Z"/><path class="cls-1" d="M236.55,120.63l27.33-7.72.32.49L243,132.79c-.32-1.65-.57-2.89-.94-4.77l-12.16,7,4.43,3.2c-6,3.17-10.9,8.13-18.52,4.74-2.06-.92-4.89-.14-7.94-.14l8.56-4.22-4.85-3,28.22-10.92Z"/><path class="cls-1" d="M254.86,142.12c-1.53,1.78-2.52,3.83-4.13,4.6a22.24,22.24,0,0,1-8.49,2.39c-7.92.31-15.87.1-23.9.45l24.36,1.22.5,1.06c-1.91.91-3.86,2.68-5.71,2.58-6.3-.33-12.57-1.28-18.84-2.06a27.15,27.15,0,0,1-3.49-.91l-.31,1.21,16.43,3.7.29,1c-2.18.48-4.38,1.43-6.54,1.34a29.94,29.94,0,0,1-7.6-1.76c-2.31-.72-4.51-1.78-6.75-2.69l-.41.91,9.11,4.15c-5.08,1.18-8.91-1.31-13-4.06,3.78-3.2,7.25-6.21,10.83-9.1a5.5,5.5,0,0,1,2.75-.89q16.5-1.92,33-3.74C253.24,141.46,253.6,141.7,254.86,142.12Z"/><path class="cls-1" d="M117.83,154.75c-2.79,3.63-8.88,6-12.56,4.61l9.07-4.19-.24-.88c-6.83,2.22-13.44,6.93-20.91,2.09L110,152.72l-.22-1c-4.87.92-9.71,2.13-14.62,2.68-4.66.52-9.78,1.72-13.78-3.58l24.8-1.21-.08-.35c-7.13,0-14.27.17-21.4-.07a32.24,32.24,0,0,1-9.45-1.71c-2.29-.81-4.75-2.32-4.38-5.82,6,.93,11.85,1.95,17.73,2.72A50.81,50.81,0,0,0,99,145c6.59-.53,11.34,2.28,15.39,7A21.29,21.29,0,0,0,117.83,154.75Z"/><path class="cls-1" d="M168.87,149.44c6.29,9.21,1.71,19.61-14.21,32.24a13.22,13.22,0,0,1-1.79-12.38,34,34,0,0,1,6.25-10.75C161.85,155.21,165.44,152.58,168.87,149.44Z"/><path class="cls-1" d="M154.38,161.29c-3.89-7.48-2.47-14.23,3.83-19.15l8.85-6.92c3.18,3,3.92,9.15.79,12.66C163.73,152.51,159.07,156.68,154.38,161.29Z"/><path class="cls-1" d="M160.66,221.38c1.22-2,2.43-4,3.69-6,4,4.17,5.08,9.8,2.8,14.63-1.21,2.57-3.26,4.79-4.19,7.43s-.87,5.49-1.25,8.28c-9.25-3.63-8.49-12.81-4.31-19.19,1.13-1.72,2.22-3.46,3.33-5.19Z"/><path class="cls-1" d="M157.36,79a11.68,11.68,0,0,1,8.82,9.64c.62,3.25.33,6.7.21,10.05a3.29,3.29,0,0,1-1.54,2.26c-4.42,2.45-6.38,6.16-5.95,11.28-4.22-4.48-5.24-9.81-2.61-14.81s3.73-10,1-15.36a4.56,4.56,0,0,1-.41-1.8C156.85,79.89,157.12,79.54,157.36,79Z"/><path class="cls-1" d="M154.69,195.73c-2.09-5.12-1.87-9.76,1.75-13.47,3.85-4,8.28-7.37,12.51-11.06C172.56,178.84,168.07,186.56,154.69,195.73Z"/><path class="cls-1" d="M131.89,97.2c3.94,5.48,9.11,5.77,15,4.07,4.68-1.35,5.8-.28,7.11,4.39.84,3,2.31,5.9,3.24,9.14-4.73-6.83-12.12-5.08-18.54-6.08C132,107.69,129.28,103.49,131.89,97.2Z"/><path class="cls-1" d="M160.16,111.26c-.38-6.35,4.55-11.05,12.22-10.71,7,.31,7,.31,10.37-4.8,3.42,4.65,1.31,11-4.16,12.2-1.44.33-3,.17-4.45.45C169.54,109.29,165,110.27,160.16,111.26Z"/><path class="cls-1" d="M160.73,221.32c-1.49,1.57-3.32,2.94-4.4,4.76-1.76,3-4.1,3.25-7,2.39a32.24,32.24,0,0,0-5.34-1.6c-3.62-.4-6.09,1.36-7.05,5.56-2.44-5.76,0-10.91,5.16-12.35a14.86,14.86,0,0,1,3.69-.51c2.6,0,5.24.33,7.8,0,2.41-.3,4.73-1.26,7.43-2l-.37,3.82Z"/><path class="cls-1" d="M167.72,186.54c3.37,8.11,2.55,13.58-10.68,20.93-3.65-3-4-7.4-.49-11S163.79,190,167.72,186.54Z"/><path class="cls-1" d="M154.4,143.8c-4.09-8.28,2.66-16.52,11.35-20.76a7.35,7.35,0,0,1,.21,10.8C162.42,137.42,158.34,140.45,154.4,143.8Z"/><path class="cls-1" d="M170.15,228.38a78.13,78.13,0,0,0-1.41-8.13c-.63-2.22-1.75-4.29-2.26-6.78,3.84,4.9,9.3,5.52,14.66,6.56,6.8,1.32,8.86,4.5,7.19,11a9.08,9.08,0,0,1-1.17-1.31c-2-3.51-4.79-4.27-8.54-3.13C175.94,227.44,173.12,227.79,170.15,228.38Z"/><path class="cls-1" d="M165.09,111.68c2.41,6.14,1.6,8.74-3.38,12.27-2.21,1.57-4.23,3.41-6.33,5.12C151.3,122.92,155.05,116,165.09,111.68Z"/><path class="cls-1" d="M167.84,201.65c2.29,5.94-3,14.71-9.43,15.17a3.08,3.08,0,0,1-2.32-1.87,7.5,7.5,0,0,1,3.53-7.64Z"/><path class="cls-1" d="M135.69,166.38l1.51,2.1c-4.22,6.52-9.39,9.1-12.26,6.19Z"/><path class="cls-1" d="M188.82,166.39c3.36,2.45,6.46,4.65,9.47,7a6.55,6.55,0,0,1,1.19,1.94,5.92,5.92,0,0,1-1.85,1c-2.42.27-9.6-5-9.79-7.24C187.76,168.08,188.54,167.09,188.82,166.39Z"/><path class="cls-1" d="M133.13,166.25c-4.32,5.44-9.75,7.86-13.09,6C122.19,169.09,130.45,165.2,133.13,166.25Z"/><path class="cls-1" d="M205.51,172.21c-4.95,1.61-10-.83-13.87-6,1.06-.36,2.37-1.28,3-.94C198.14,167.31,201.51,169.62,205.51,172.21Z"/><path class="cls-1" d="M183.51,167.66l10.51,9.2c-4,1.85-10.07-2.56-11.41-8.21Z"/><path class="cls-1" d="M123.16,159.35c1.66,1.63,1.59,2.91-.54,4.26-4.78,3-8.06,3.5-9.93,1Z"/><path class="cls-1" d="M212.26,164.68c-2.19,2.22-7,1.64-10.58-1.42-.81-.7-.78-2.36-1.39-4.41Z"/><path class="cls-1" d="M115.65,169.67a2.83,2.83,0,0,1,.17-1.07c1.05-1.71,10.93-5.45,13.56-4.78-4.21,3.6-8.11,6.66-13.79,5.79Z"/><path class="cls-1" d="M196.3,162.56,209,168c-2.63,3.15-8.48,1.23-13.12-4.06Z"/><path class="cls-1" d="M130.11,176.79c5-2,6.54-7.65,12-8.84C141.12,173.73,135.09,178.42,130.11,176.79Z"/><path class="cls-1" d="M147.2,169c-1.18,5.64-5.94,9.66-10,8.12C141.17,175.06,141.63,169.51,147.2,169Z"/><path class="cls-1" d="M177.23,169.06c5.71.46,6.31,5.84,10.12,8.07C183.32,178.52,179.24,175.17,177.23,169.06Z"/><path class="cls-1" d="M108.5,161c4.57,0,7.3-4.75,12.48-2.71C116.35,162.56,112.19,163.58,108.5,161Z"/><path class="cls-1" d="M216.13,162.15c-5.23,1.47-8.51-.89-12.08-2.89C206.42,156.75,208.62,157.27,216.13,162.15Z"/><path class="cls-1" d="M141.28,148.26l7,6.49C143.21,156.5,141.11,154.71,141.28,148.26Z"/></g></g></svg>